<svg xmlns="http://www.w3.org/2000/svg" viewBox="0 0 1200 630" width="1200" height="630" font-family="'Noto Sans JP','Hiragino Sans','Hiragino Kaku Gothic ProN','Yu Gothic',Meiryo,IPAGothic,sans-serif">
  <defs>
    <radialGradient id="obg" cx="50%" cy="40%" r="80%">
      <stop offset="0%" stop-color="#1c1750"/><stop offset="100%" stop-color="#06040f"/>
    </radialGradient><radialGradient id="g0" cx="50%" cy="50%" r="50%"><stop offset="0%" stop-color="#b478ff" stop-opacity="0.6"/><stop offset="100%" stop-color="#b478ff" stop-opacity="0"/></radialGradient><radialGradient id="g1" cx="50%" cy="50%" r="50%"><stop offset="0%" stop-color="#ffd54a" stop-opacity="0.6"/><stop offset="100%" stop-color="#ffd54a" stop-opacity="0"/></radialGradient><radialGradient id="g2" cx="50%" cy="50%" r="50%"><stop offset="0%" stop-color="#c9c2ff" stop-opacity="0.6"/><stop offset="100%" stop-color="#c9c2ff" stop-opacity="0"/></radialGradient>
  </defs>
  <rect width="1200" height="630" fill="url(#obg)"/>
  <circle cx="1176" cy="193" r="1.2" fill="#fff" opacity="0.77"/><circle cx="611" cy="219" r="0.5" fill="#fff" opacity="0.74"/><circle cx="1196" cy="520" r="1.1" fill="#fff" opacity="0.86"/><circle cx="1069" cy="611" r="1.4" fill="#fff" opacity="0.37"/><circle cx="568" cy="192" r="1.6" fill="#fff" opacity="0.81"/><circle cx="776" cy="491" r="1.7" fill="#fff" opacity="0.66"/><circle cx="544" cy="46" r="0.9" fill="#fff" opacity="0.34"/><circle cx="903" cy="64" r="0.8" fill="#fff" opacity="0.25"/><circle cx="755" cy="584" r="1.0" fill="#fff" opacity="0.35"/><circle cx="2" cy="429" r="1.7" fill="#fff" opacity="0.23"/><circle cx="717" cy="443" r="1.9" fill="#fff" opacity="0.23"/><circle cx="678" cy="568" r="1.3" fill="#fff" opacity="0.79"/><circle cx="554" cy="164" r="0.8" fill="#fff" opacity="0.56"/><circle cx="863" cy="192" r="0.6" fill="#fff" opacity="0.80"/><circle cx="522" cy="562" r="0.6" fill="#fff" opacity="0.21"/><circle cx="222" cy="477" r="1.1" fill="#fff" opacity="0.71"/><circle cx="516" cy="50" r="1.0" fill="#fff" opacity="0.88"/><circle cx="1169" cy="484" r="0.9" fill="#fff" opacity="0.20"/><circle cx="707" cy="98" r="1.2" fill="#fff" opacity="0.32"/><circle cx="993" cy="578" r="0.8" fill="#fff" opacity="0.74"/><circle cx="356" cy="481" r="1.9" fill="#fff" opacity="0.31"/><circle cx="1042" cy="596" r="1.3" fill="#fff" opacity="0.21"/><circle cx="688" cy="444" r="1.5" fill="#fff" opacity="0.62"/><circle cx="1135" cy="511" r="2.0" fill="#fff" opacity="0.82"/><circle cx="574" cy="251" r="0.8" fill="#fff" opacity="0.38"/><circle cx="1192" cy="286" r="0.7" fill="#fff" opacity="0.22"/><circle cx="424" cy="178" r="1.1" fill="#fff" opacity="0.38"/><circle cx="976" cy="211" r="1.9" fill="#fff" opacity="0.77"/><circle cx="701" cy="392" r="0.7" fill="#fff" opacity="0.22"/><circle cx="1188" cy="14" r="1.5" fill="#fff" opacity="0.87"/><circle cx="891" cy="224" r="0.6" fill="#fff" opacity="0.63"/><circle cx="453" cy="1" r="1.4" fill="#fff" opacity="0.61"/><circle cx="85" cy="204" r="1.4" fill="#fff" opacity="0.40"/><circle cx="728" cy="607" r="1.7" fill="#fff" opacity="0.78"/><circle cx="923" cy="243" r="1.9" fill="#fff" opacity="0.80"/><circle cx="518" cy="407" r="1.8" fill="#fff" opacity="0.80"/><circle cx="131" cy="601" r="1.1" fill="#fff" opacity="0.77"/><circle cx="313" cy="298" r="0.4" fill="#fff" opacity="0.33"/><circle cx="161" cy="330" r="1.5" fill="#fff" opacity="0.20"/><circle cx="739" cy="587" r="1.2" fill="#fff" opacity="0.56"/><circle cx="724" cy="424" r="0.8" fill="#fff" opacity="0.61"/><circle cx="1167" cy="116" r="1.1" fill="#fff" opacity="0.67"/><circle cx="446" cy="79" r="1.5" fill="#fff" opacity="0.85"/><circle cx="906" cy="555" r="1.7" fill="#fff" opacity="0.62"/><circle cx="164" cy="474" r="0.7" fill="#fff" opacity="0.32"/><circle cx="674" cy="27" r="1.4" fill="#fff" opacity="0.39"/><circle cx="1130" cy="617" r="1.9" fill="#fff" opacity="0.49"/><circle cx="952" cy="396" r="1.0" fill="#fff" opacity="0.30"/><circle cx="169" cy="460" r="0.6" fill="#fff" opacity="0.25"/><circle cx="522" cy="346" r="0.4" fill="#fff" opacity="0.66"/><circle cx="436" cy="364" r="1.5" fill="#fff" opacity="0.56"/><circle cx="885" cy="15" r="0.8" fill="#fff" opacity="0.29"/><circle cx="65" cy="46" r="1.4" fill="#fff" opacity="0.25"/><circle cx="861" cy="590" r="0.4" fill="#fff" opacity="0.81"/><circle cx="1169" cy="284" r="1.3" fill="#fff" opacity="0.25"/><circle cx="1133" cy="147" r="1.0" fill="#fff" opacity="0.29"/><circle cx="526" cy="27" r="1.6" fill="#fff" opacity="0.21"/><circle cx="129" cy="298" r="1.7" fill="#fff" opacity="0.74"/><circle cx="811" cy="132" r="1.0" fill="#fff" opacity="0.35"/><circle cx="938" cy="422" r="0.6" fill="#fff" opacity="0.79"/><circle cx="545" cy="355" r="1.4" fill="#fff" opacity="0.64"/><circle cx="568" cy="542" r="1.8" fill="#fff" opacity="0.68"/><circle cx="936" cy="212" r="0.8" fill="#fff" opacity="0.36"/><circle cx="607" cy="68" r="0.7" fill="#fff" opacity="0.73"/><circle cx="76" cy="586" r="1.5" fill="#fff" opacity="0.28"/><circle cx="108" cy="592" r="1.4" fill="#fff" opacity="0.72"/><circle cx="576" cy="475" r="0.6" fill="#fff" opacity="0.87"/><circle cx="113" cy="593" r="1.8" fill="#fff" opacity="0.85"/><circle cx="362" cy="86" r="1.7" fill="#fff" opacity="0.79"/><circle cx="204" cy="572" r="0.5" fill="#fff" opacity="0.66"/><circle cx="1084" cy="228" r="1.2" fill="#fff" opacity="0.60"/><circle cx="289" cy="183" r="1.9" fill="#fff" opacity="0.39"/><circle cx="861" cy="63" r="1.9" fill="#fff" opacity="0.50"/><circle cx="474" cy="629" r="2.0" fill="#fff" opacity="0.45"/><circle cx="639" cy="383" r="1.7" fill="#fff" opacity="0.85"/><circle cx="47" cy="547" r="0.5" fill="#fff" opacity="0.72"/><circle cx="1194" cy="421" r="0.4" fill="#fff" opacity="0.27"/><circle cx="827" cy="487" r="1.5" fill="#fff" opacity="0.59"/><circle cx="1104" cy="104" r="1.8" fill="#fff" opacity="0.21"/><circle cx="931" cy="282" r="1.2" fill="#fff" opacity="0.35"/><circle cx="73" cy="296" r="0.7" fill="#fff" opacity="0.70"/><circle cx="669" cy="276" r="0.5" fill="#fff" opacity="0.41"/><circle cx="32" cy="556" r="1.3" fill="#fff" opacity="0.81"/><circle cx="185" cy="194" r="1.4" fill="#fff" opacity="0.45"/><circle cx="1024" cy="380" r="1.9" fill="#fff" opacity="0.72"/><circle cx="663" cy="215" r="1.6" fill="#fff" opacity="0.77"/><circle cx="1126" cy="447" r="1.8" fill="#fff" opacity="0.37"/><circle cx="906" cy="64" r="0.9" fill="#fff" opacity="0.27"/><circle cx="965" cy="463" r="1.8" fill="#fff" opacity="0.79"/><circle cx="617" cy="141" r="0.7" fill="#fff" opacity="0.36"/>
  <g opacity="0.12"><path d="M600 250 L1600 250 L1599 290 Z" fill="#9db4ff"/><path d="M600 250 L1575 473 L1565 511 Z" fill="#9db4ff"/><path d="M600 250 L1501 684 L1483 720 Z" fill="#9db4ff"/><path d="M600 250 L1382 873 L1356 904 Z" fill="#9db4ff"/><path d="M600 250 L1223 1032 L1192 1056 Z" fill="#9db4ff"/><path d="M600 250 L1034 1151 L998 1168 Z" fill="#9db4ff"/><path d="M600 250 L823 1225 L783 1233 Z" fill="#9db4ff"/><path d="M600 250 L600 1250 L560 1249 Z" fill="#9db4ff"/><path d="M600 250 L377 1225 L339 1215 Z" fill="#9db4ff"/><path d="M600 250 L166 1151 L130 1133 Z" fill="#9db4ff"/><path d="M600 250 L-23 1032 L-54 1006 Z" fill="#9db4ff"/><path d="M600 250 L-182 873 L-206 842 Z" fill="#9db4ff"/><path d="M600 250 L-301 684 L-318 648 Z" fill="#9db4ff"/><path d="M600 250 L-375 473 L-383 433 Z" fill="#9db4ff"/><path d="M600 250 L-400 250 L-399 210 Z" fill="#9db4ff"/><path d="M600 250 L-375 27 L-365 -11 Z" fill="#9db4ff"/><path d="M600 250 L-301 -184 L-283 -220 Z" fill="#9db4ff"/><path d="M600 250 L-182 -373 L-156 -404 Z" fill="#9db4ff"/><path d="M600 250 L-23 -532 L8 -556 Z" fill="#9db4ff"/><path d="M600 250 L166 -651 L202 -668 Z" fill="#9db4ff"/><path d="M600 250 L377 -725 L417 -733 Z" fill="#9db4ff"/><path d="M600 250 L600 -750 L640 -749 Z" fill="#9db4ff"/><path d="M600 250 L823 -725 L861 -715 Z" fill="#9db4ff"/><path d="M600 250 L1034 -651 L1070 -633 Z" fill="#9db4ff"/><path d="M600 250 L1223 -532 L1254 -506 Z" fill="#9db4ff"/><path d="M600 250 L1382 -373 L1406 -342 Z" fill="#9db4ff"/><path d="M600 250 L1501 -184 L1518 -148 Z" fill="#9db4ff"/><path d="M600 250 L1575 27 L1583 67 Z" fill="#9db4ff"/></g>
  <g transform="translate(430 330) rotate(-14) scale(0.34)">
      <rect x="-300" y="-450" width="600" height="900" rx="26" fill="#08060b" stroke="#ff3b4e" stroke-width="6"/>
      <g transform="translate(-300 -450)">
        <circle cx="300" cy="392" r="190" fill="url(#g0)"/>
        
    <path d="M236 360 C 236 300, 364 300, 364 360 C 364 398, 344 410, 344 430
      L 256 430 C 256 410, 236 398, 236 360 Z" fill="#e9e4d8"/>
    <path d="M270 430 L270 452 M300 430 L300 456 M330 430 L330 452"
      stroke="#0a0a12" stroke-width="6"/>
    <ellipse cx="272" cy="372" rx="20" ry="24" fill="#0a0a12"/>
    <ellipse cx="328" cy="372" rx="20" ry="24" fill="#0a0a12"/>
    <circle cx="278" cy="368" r="5" fill="#ff3b4e"/>
    <circle cx="334" cy="368" r="5" fill="#ff3b4e"/>
    <path d="M300 396 L290 416 L310 416 Z" fill="#0a0a12"/>
    <path d="M236 360 C 236 300, 364 300, 364 360" fill="none" stroke="#b478ff" stroke-width="3" opacity="0.7"/>
        <circle cx="300" cy="392" r="150" fill="none" stroke="#b478ff" stroke-width="4" opacity="0.8"/>
      </g>
    </g><g transform="translate(600 330) rotate(0) scale(0.34)">
      <rect x="-300" y="-450" width="600" height="900" rx="26" fill="#0c0823" stroke="#f4d35e" stroke-width="6"/>
      <g transform="translate(-300 -450)">
        <circle cx="300" cy="392" r="190" fill="url(#g1)"/>
        
    <path d="M232 446 L232 372 L272 410 L300 350 L328 410 L368 372 L368 446 Z"
      fill="#ffd54a" opacity="0.35" stroke="#f4d35e" stroke-width="3.5" stroke-linejoin="round"/>
    <rect x="232" y="446" width="136" height="20" rx="5" fill="#f4d35e"/>
    <circle cx="232" cy="368" r="9" fill="#f4d35e"/>
    <circle cx="368" cy="368" r="9" fill="#f4d35e"/>
    <circle cx="300" cy="344" r="10" fill="#fff"/>
    <circle cx="272" cy="426" r="6" fill="#fff" opacity="0.9"/>
    <circle cx="328" cy="426" r="6" fill="#fff" opacity="0.9"/>
        <circle cx="300" cy="392" r="150" fill="none" stroke="#ffd54a" stroke-width="4" opacity="0.8"/>
      </g>
    </g><g transform="translate(770 330) rotate(14) scale(0.34)">
      <rect x="-300" y="-450" width="600" height="900" rx="26" fill="#0c0823" stroke="#f4d35e" stroke-width="6"/>
      <g transform="translate(-300 -450)">
        <circle cx="300" cy="392" r="190" fill="url(#g2)"/>
        
    <polygon points="300.0,242.0 310.4,353.4 375.0,262.1 328.3,363.7 429.9,317.0 338.6,381.6 450.0,392.0 338.6,402.4 429.9,467.0 328.3,420.3 375.0,521.9 310.4,430.6 300.0,542.0 289.6,430.6 225.0,521.9 271.7,420.3 170.1,467.0 261.4,402.4 150.0,392.0 261.4,381.6 170.1,317.0 271.7,363.7 225.0,262.1 289.6,353.4" fill="#c9c2ff" opacity="0.35"/>
    <polygon points="410.0,392.0 327.7,403.5 377.8,469.8 311.5,419.7 300.0,502.0 288.5,419.7 222.2,469.8 272.3,403.5 190.0,392.0 272.3,380.5 222.2,314.2 288.5,364.3 300.0,282.0 311.5,364.3 377.8,314.2 327.7,380.5" fill="#f4d35e" opacity="0.55"/>
    <circle cx="300" cy="392" r="46" fill="#fff"/>
    <circle cx="300" cy="392" r="64" fill="none" stroke="#fff" stroke-width="2" opacity="0.7"/>
    <circle cx="300" cy="392" r="46" fill="none" stroke="#f4d35e" stroke-width="3"/>
        <circle cx="300" cy="392" r="150" fill="none" stroke="#c9c2ff" stroke-width="4" opacity="0.8"/>
      </g>
    </g>
  <text x="600" y="120" text-anchor="middle" font-family="IPAGothic" font-size="74" font-weight="900" fill="#fff" letter-spacing="2">長時間労働診断</text>
  <text x="600" y="560" text-anchor="middle" font-family="IPAGothic" font-size="30" font-weight="700" fill="#9db4ff" letter-spacing="2">あなたはどの長時間労働タイプ？ — 全16タイプ診断</text>
  <rect x="14" y="14" width="1172" height="602" rx="18" fill="none" stroke="#9db4ff" stroke-width="3"/>
</svg>