<svg xmlns="http://www.w3.org/2000/svg" viewBox="0 0 600 900" width="600" height="900" font-family="'Noto Sans JP','Hiragino Sans','Hiragino Kaku Gothic ProN','Yu Gothic',Meiryo,IPAGothic,sans-serif">
  <defs>
    <radialGradient id="bg" cx="50%" cy="42%" r="75%">
      <stop offset="0%" stop-color="#3a0d18"/>
      <stop offset="100%" stop-color="#08060b"/>
    </radialGradient>
    <radialGradient id="glow" cx="50%" cy="50%" r="50%">
      <stop offset="0%" stop-color="#9b8cff" stop-opacity="0.55"/>
      <stop offset="100%" stop-color="#9b8cff" stop-opacity="0"/>
    </radialGradient>
  </defs>

  <rect width="600" height="900" rx="26" fill="url(#bg)"/>
  <g><circle cx="374.1" cy="775.6" r="1.4" fill="#fff" opacity="0.67"/><circle cx="133.6" cy="663.1" r="2.0" fill="#fff" opacity="0.50"/><circle cx="534.6" cy="846.4" r="0.5" fill="#fff" opacity="0.38"/><circle cx="462.7" cy="725.5" r="0.7" fill="#fff" opacity="0.26"/><circle cx="97.9" cy="130.3" r="2.0" fill="#fff" opacity="0.68"/><circle cx="463.2" cy="557.5" r="0.6" fill="#fff" opacity="0.45"/><circle cx="412.5" cy="798.3" r="1.0" fill="#fff" opacity="0.67"/><circle cx="286.1" cy="862.8" r="1.3" fill="#fff" opacity="0.35"/><circle cx="161.7" cy="624.6" r="0.5" fill="#fff" opacity="0.81"/><circle cx="210.3" cy="567.4" r="1.4" fill="#fff" opacity="0.31"/><circle cx="132.0" cy="846.0" r="1.8" fill="#fff" opacity="0.85"/><circle cx="497.4" cy="626.7" r="0.6" fill="#fff" opacity="0.46"/><circle cx="65.3" cy="581.5" r="1.6" fill="#fff" opacity="0.63"/><circle cx="321.9" cy="845.8" r="1.4" fill="#fff" opacity="0.59"/><circle cx="152.0" cy="83.1" r="1.1" fill="#fff" opacity="0.60"/><circle cx="393.1" cy="582.9" r="0.9" fill="#fff" opacity="0.76"/><circle cx="246.3" cy="51.5" r="1.3" fill="#fff" opacity="0.75"/><circle cx="110.8" cy="220.1" r="2.1" fill="#fff" opacity="0.29"/><circle cx="468.2" cy="493.3" r="0.8" fill="#fff" opacity="0.26"/><circle cx="376.6" cy="562.4" r="0.5" fill="#fff" opacity="0.74"/><circle cx="436.4" cy="589.2" r="1.1" fill="#fff" opacity="0.89"/><circle cx="468.4" cy="320.9" r="1.8" fill="#fff" opacity="0.52"/><circle cx="140.5" cy="316.2" r="1.3" fill="#fff" opacity="0.85"/><circle cx="82.7" cy="55.5" r="0.5" fill="#fff" opacity="0.79"/><circle cx="411.4" cy="216.4" r="1.2" fill="#fff" opacity="0.21"/><circle cx="160.9" cy="786.5" r="1.0" fill="#fff" opacity="0.37"/><circle cx="137.9" cy="185.1" r="2.0" fill="#fff" opacity="0.44"/><circle cx="60.0" cy="254.0" r="0.7" fill="#fff" opacity="0.35"/><circle cx="405.6" cy="546.0" r="0.7" fill="#fff" opacity="0.71"/><circle cx="282.9" cy="828.1" r="1.5" fill="#fff" opacity="0.62"/><circle cx="125.9" cy="149.4" r="0.5" fill="#fff" opacity="0.47"/><circle cx="524.5" cy="744.4" r="1.2" fill="#fff" opacity="0.51"/><circle cx="280.5" cy="41.3" r="1.6" fill="#fff" opacity="0.34"/><circle cx="391.0" cy="803.9" r="0.7" fill="#fff" opacity="0.82"/><circle cx="343.5" cy="86.4" r="0.9" fill="#fff" opacity="0.40"/><circle cx="58.4" cy="836.1" r="0.5" fill="#fff" opacity="0.25"/><circle cx="505.7" cy="38.9" r="1.5" fill="#fff" opacity="0.60"/><circle cx="422.2" cy="160.4" r="1.5" fill="#fff" opacity="0.81"/><circle cx="124.1" cy="339.4" r="1.8" fill="#fff" opacity="0.20"/><circle cx="537.6" cy="513.0" r="0.4" fill="#fff" opacity="0.79"/><circle cx="86.4" cy="67.2" r="1.9" fill="#fff" opacity="0.21"/><circle cx="239.8" cy="608.5" r="1.5" fill="#fff" opacity="0.73"/><circle cx="460.1" cy="860.1" r="1.4" fill="#fff" opacity="0.90"/><circle cx="133.9" cy="120.0" r="1.4" fill="#fff" opacity="0.27"/><circle cx="272.7" cy="203.3" r="1.4" fill="#fff" opacity="0.49"/><circle cx="154.8" cy="267.6" r="1.4" fill="#fff" opacity="0.57"/><circle cx="404.9" cy="148.1" r="2.0" fill="#fff" opacity="0.79"/><circle cx="41.7" cy="255.6" r="1.7" fill="#fff" opacity="0.76"/><circle cx="179.5" cy="532.5" r="1.8" fill="#fff" opacity="0.45"/><circle cx="400.0" cy="667.5" r="1.1" fill="#fff" opacity="0.24"/><circle cx="440.5" cy="786.6" r="1.7" fill="#fff" opacity="0.76"/><circle cx="216.4" cy="80.3" r="1.4" fill="#fff" opacity="0.69"/><circle cx="231.2" cy="811.2" r="1.3" fill="#fff" opacity="0.26"/><circle cx="209.6" cy="62.3" r="0.9" fill="#fff" opacity="0.82"/><circle cx="462.3" cy="611.0" r="2.1" fill="#fff" opacity="0.34"/><circle cx="176.1" cy="636.3" r="1.5" fill="#fff" opacity="0.26"/><circle cx="184.8" cy="550.5" r="0.8" fill="#fff" opacity="0.72"/></g>
  <g opacity="0.16"><path d="M360 406 L820 392 L360 378 Z" fill="#ff7a5c"/><path d="M351.5932752405951 425.67690529054283 L788.6401628086724 569.8504745293477 L361.16983925371386 399.36551190853737 Z" fill="#ff7a5c"/><path d="M336.96364005152714 441.29187878485806 L698.3431104218686 726.2495570370004 L354.96169312275026 419.8426343775266 Z" fill="#ff7a5c"/><path d="M317.87564434701784 450.9615242270663 L560 842.333209967908 L342.12435565298216 436.9615242270663 Z" fill="#ff7a5c"/><path d="M296.6315821178449 453.5195396680695 L390.2970523868038 904.1000315663482 L324.2061992021868 448.6573906933955 Z" fill="#ff7a5c"/><path d="M275.7938007978133 448.6573906933955 L209.70294761319624 904.1000315663482 L303.36841788215514 453.5195396680695 Z" fill="#ff7a5c"/><path d="M257.87564434701784 436.9615242270663 L40.000000000000114 842.3332099679081 L282.12435565298216 450.9615242270663 Z" fill="#ff7a5c"/><path d="M245.03830687724977 419.8426343775267 L-98.34311042186852 726.2495570370005 L263.03635994847286 441.2918787848581 Z" fill="#ff7a5c"/><path d="M238.83016074628614 399.3655119085374 L-188.6401628086723 569.8504745293478 L248.40672475940488 425.6769052905429 Z" fill="#ff7a5c"/><path d="M240 378 L-220 392.00000000000006 L240 406 Z" fill="#ff7a5c"/><path d="M248.40672475940485 358.32309470945717 L-188.64016280867236 214.1495254706523 L238.83016074628617 384.63448809146263 Z" fill="#ff7a5c"/><path d="M263.03635994847286 342.70812121514194 L-98.34311042186874 57.750442962999784 L245.03830687724977 364.1573656224734 Z" fill="#ff7a5c"/><path d="M282.12435565298216 333.0384757729337 L39.99999999999977 -58.33320996790803 L257.87564434701784 347.0384757729337 Z" fill="#ff7a5c"/><path d="M303.36841788215514 330.4804603319305 L209.70294761319622 -120.1000315663482 L275.7938007978133 335.3426093066045 Z" fill="#ff7a5c"/><path d="M324.2061992021867 335.3426093066045 L390.29705238680356 -120.1000315663482 L296.63158211784486 330.4804603319305 Z" fill="#ff7a5c"/><path d="M342.1243556529821 347.0384757729337 L559.9999999999997 -58.33320996790832 L317.8756443470178 333.0384757729337 Z" fill="#ff7a5c"/><path d="M354.9616931227502 364.1573656224733 L698.3431104218685 57.75044296299944 L336.9636400515271 342.7081212151419 Z" fill="#ff7a5c"/><path d="M361.16983925371386 384.63448809146263 L788.6401628086724 214.14952547065232 L351.5932752405951 358.32309470945717 Z" fill="#ff7a5c"/></g>
  <circle cx="300" cy="392" r="200" fill="url(#glow)"/>

  <!-- 中央メダリオン -->
  <circle cx="300" cy="392" r="150" fill="#0b0820" opacity="0.55"/>
  <polygon points="300.0,224.0 319.6,243.3 343.5,229.7 357.4,253.4 384.0,246.5 391.3,273.0 418.8,273.2 419.0,300.7 445.5,308.0 438.6,334.6 462.3,348.5 448.7,372.4 468.0,392.0 448.7,411.6 462.3,435.5 438.6,449.4 445.5,476.0 419.0,483.3 418.8,510.8 391.3,511.0 384.0,537.5 357.4,530.6 343.5,554.3 319.6,540.7 300.0,560.0 280.4,540.7 256.5,554.3 242.6,530.6 216.0,537.5 208.7,511.0 181.2,510.8 181.0,483.3 154.5,476.0 161.4,449.4 137.7,435.5 151.3,411.6 132.0,392.0 151.3,372.4 137.7,348.5 161.4,334.6 154.5,308.0 181.0,300.7 181.2,273.2 208.7,273.0 216.0,246.5 242.6,253.4 256.5,229.7 280.4,243.3" fill="none" stroke="#ff3b4e" stroke-width="2" opacity="0.8"/><circle cx="450.0" cy="392.0" r="2" fill="#ff3b4e"/><circle cx="444.9" cy="430.8" r="2" fill="#ff3b4e"/><circle cx="429.9" cy="467.0" r="2" fill="#ff3b4e"/><circle cx="406.1" cy="498.1" r="2" fill="#ff3b4e"/><circle cx="375.0" cy="521.9" r="2" fill="#ff3b4e"/><circle cx="338.8" cy="536.9" r="2" fill="#ff3b4e"/><circle cx="300.0" cy="542.0" r="2" fill="#ff3b4e"/><circle cx="261.2" cy="536.9" r="2" fill="#ff3b4e"/><circle cx="225.0" cy="521.9" r="2" fill="#ff3b4e"/><circle cx="193.9" cy="498.1" r="2" fill="#ff3b4e"/><circle cx="170.1" cy="467.0" r="2" fill="#ff3b4e"/><circle cx="155.1" cy="430.8" r="2" fill="#ff3b4e"/><circle cx="150.0" cy="392.0" r="2" fill="#ff3b4e"/><circle cx="155.1" cy="353.2" r="2" fill="#ff3b4e"/><circle cx="170.1" cy="317.0" r="2" fill="#ff3b4e"/><circle cx="193.9" cy="285.9" r="2" fill="#ff3b4e"/><circle cx="225.0" cy="262.1" r="2" fill="#ff3b4e"/><circle cx="261.2" cy="247.1" r="2" fill="#ff3b4e"/><circle cx="300.0" cy="242.0" r="2" fill="#ff3b4e"/><circle cx="338.8" cy="247.1" r="2" fill="#ff3b4e"/><circle cx="375.0" cy="262.1" r="2" fill="#ff3b4e"/><circle cx="406.1" cy="285.9" r="2" fill="#ff3b4e"/><circle cx="429.9" cy="317.0" r="2" fill="#ff3b4e"/><circle cx="444.9" cy="353.2" r="2" fill="#ff3b4e"/>
  
    <g transform="rotate(-20 300 392)"><ellipse cx="300" cy="392" rx="150" ry="63" fill="none" stroke="#9b8cff" stroke-width="5.0" opacity="0.85"/><ellipse cx="300" cy="392" rx="138" ry="58" fill="none" stroke="#ff3b4e" stroke-width="4.4" opacity="0.73"/><ellipse cx="300" cy="392" rx="126" ry="53" fill="none" stroke="#9b8cff" stroke-width="3.8" opacity="0.61"/><ellipse cx="300" cy="392" rx="114" ry="48" fill="none" stroke="#ff3b4e" stroke-width="3.2" opacity="0.49"/><ellipse cx="300" cy="392" rx="102" ry="43" fill="none" stroke="#9b8cff" stroke-width="2.6" opacity="0.37"/></g>
    <circle cx="300" cy="392" r="58" fill="#000"/>
    <circle cx="300" cy="392" r="58" fill="none" stroke="#ff3b4e" stroke-width="2.5"/>
    <circle cx="300" cy="392" r="70" fill="none" stroke="#9b8cff" stroke-width="1.5" opacity="0.6"/>

  <!-- ローマ数字の銘板 -->
  <g>
    <rect x="240" y="74" width="120" height="46" rx="10" fill="#0b0820" opacity="0.6" stroke="#ff3b4e" stroke-width="1.5"/>
    <text x="300" y="106" text-anchor="middle" font-size="26" letter-spacing="3" fill="#ff3b4e" font-weight="700">XI</text>
  </g>

  <!-- 下部バナー -->
  <g>
    <path d="M70 792 L530 792 L512 836 L530 880 L70 880 L88 836 Z" fill="#0b0820" opacity="0.72" stroke="#ff3b4e" stroke-width="1.5"/>
    <text x="300" y="838" text-anchor="middle" font-size="33" font-weight="900" fill="#fff">ブラックホールタイプ</text>
    <text x="300" y="866" text-anchor="middle" font-size="15" letter-spacing="4" fill="#ff3b4e" font-weight="700">THE VOID</text>
  </g>

  <!-- 装飾枠 -->
  <rect x="20" y="20" width="560" height="860" rx="18" fill="none" stroke="#ff3b4e" stroke-width="3"/>
  <rect x="32" y="32" width="536" height="836" rx="12" fill="none" stroke="#ff3b4e" stroke-width="1" opacity="0.5"/>
  <g transform="translate(44 44)" fill="#ff3b4e">
    <polygon points="0,-9 9,0 0,9 -9,0"/>
    <circle cx="0" cy="0" r="2.5" fill="#0c0823"/>
  </g>
  <g transform="translate(556 44)" fill="#ff3b4e">
    <polygon points="0,-9 9,0 0,9 -9,0"/>
    <circle cx="0" cy="0" r="2.5" fill="#0c0823"/>
  </g>
  <g transform="translate(44 856)" fill="#ff3b4e">
    <polygon points="0,-9 9,0 0,9 -9,0"/>
    <circle cx="0" cy="0" r="2.5" fill="#0c0823"/>
  </g>
  <g transform="translate(556 856)" fill="#ff3b4e">
    <polygon points="0,-9 9,0 0,9 -9,0"/>
    <circle cx="0" cy="0" r="2.5" fill="#0c0823"/>
  </g>
</svg>