<svg xmlns="http://www.w3.org/2000/svg" viewBox="0 0 600 900" width="600" height="900">
  <defs>
    <radialGradient id="bg" cx="50%" cy="40%" r="78%">
      <stop offset="0%" stop-color="#241a52"/>
      <stop offset="100%" stop-color="#0c0823"/>
    </radialGradient>
    <radialGradient id="glow" cx="50%" cy="50%" r="50%">
      <stop offset="0%" stop-color="#ffc24b" stop-opacity="0.6"/>
      <stop offset="55%" stop-color="#ffc24b" stop-opacity="0.12"/>
      <stop offset="100%" stop-color="#ffc24b" stop-opacity="0"/>
    </radialGradient>
    <radialGradient id="vig" cx="50%" cy="46%" r="72%">
      <stop offset="62%" stop-color="#000" stop-opacity="0"/>
      <stop offset="100%" stop-color="#000" stop-opacity="0.55"/>
    </radialGradient>
  </defs>

  <rect width="600" height="900" fill="url(#bg)"/>
  <g><circle cx="158.7" cy="610.3" r="1.3" fill="#fff" opacity="0.67"/><circle cx="243.3" cy="839.3" r="1.6" fill="#fff" opacity="0.40"/><circle cx="272.6" cy="601.0" r="2.2" fill="#fff" opacity="0.79"/><circle cx="464.4" cy="572.1" r="1.8" fill="#fff" opacity="0.69"/><circle cx="404.3" cy="174.4" r="1.6" fill="#fff" opacity="0.80"/><circle cx="111.0" cy="402.6" r="1.6" fill="#fff" opacity="0.82"/><circle cx="400.8" cy="597.0" r="1.0" fill="#fff" opacity="0.62"/><circle cx="66.8" cy="832.6" r="0.5" fill="#fff" opacity="0.89"/><circle cx="555.8" cy="539.5" r="0.5" fill="#fff" opacity="0.23"/><circle cx="532.3" cy="61.7" r="0.5" fill="#fff" opacity="0.55"/><circle cx="55.9" cy="264.9" r="0.6" fill="#fff" opacity="0.84"/><circle cx="79.1" cy="165.4" r="0.6" fill="#fff" opacity="0.42"/><circle cx="114.5" cy="288.6" r="0.6" fill="#fff" opacity="0.31"/><circle cx="513.0" cy="192.0" r="1.5" fill="#fff" opacity="0.21"/><circle cx="566.6" cy="721.2" r="0.4" fill="#fff" opacity="0.87"/><circle cx="270.4" cy="567.8" r="1.1" fill="#fff" opacity="0.71"/><circle cx="194.3" cy="596.2" r="2.0" fill="#fff" opacity="0.63"/><circle cx="519.0" cy="485.8" r="1.2" fill="#fff" opacity="0.77"/><circle cx="146.4" cy="745.0" r="1.0" fill="#fff" opacity="0.77"/><circle cx="478.4" cy="428.2" r="2.1" fill="#fff" opacity="0.31"/><circle cx="270.3" cy="809.0" r="1.1" fill="#fff" opacity="0.48"/><circle cx="219.9" cy="612.2" r="1.2" fill="#fff" opacity="0.89"/><circle cx="190.3" cy="134.9" r="1.6" fill="#fff" opacity="0.77"/><circle cx="45.0" cy="574.4" r="2.2" fill="#fff" opacity="0.69"/><circle cx="495.5" cy="457.7" r="1.2" fill="#fff" opacity="0.38"/><circle cx="132.3" cy="101.2" r="0.7" fill="#fff" opacity="0.46"/><circle cx="211.3" cy="580.5" r="1.9" fill="#fff" opacity="0.69"/><circle cx="210.8" cy="824.3" r="1.9" fill="#fff" opacity="0.46"/><circle cx="380.9" cy="81.5" r="1.8" fill="#fff" opacity="0.39"/><circle cx="244.1" cy="50.1" r="1.5" fill="#fff" opacity="0.55"/><circle cx="45.7" cy="389.1" r="1.2" fill="#fff" opacity="0.58"/><circle cx="387.3" cy="134.8" r="0.5" fill="#fff" opacity="0.39"/><circle cx="294.4" cy="753.4" r="1.7" fill="#fff" opacity="0.71"/><circle cx="124.9" cy="85.2" r="0.7" fill="#fff" opacity="0.59"/><circle cx="33.0" cy="368.6" r="2.1" fill="#fff" opacity="0.29"/><circle cx="448.4" cy="639.4" r="1.0" fill="#fff" opacity="0.70"/><circle cx="37.6" cy="543.5" r="0.9" fill="#fff" opacity="0.84"/><circle cx="143.1" cy="87.4" r="1.6" fill="#fff" opacity="0.28"/><circle cx="151.6" cy="292.8" r="1.3" fill="#fff" opacity="0.36"/><circle cx="347.4" cy="575.5" r="1.2" fill="#fff" opacity="0.45"/><circle cx="528.0" cy="676.9" r="0.4" fill="#fff" opacity="0.79"/><circle cx="466.6" cy="268.5" r="0.6" fill="#fff" opacity="0.78"/><circle cx="450.1" cy="521.6" r="0.5" fill="#fff" opacity="0.26"/><circle cx="252.0" cy="705.6" r="0.9" fill="#fff" opacity="0.84"/><circle cx="558.8" cy="396.1" r="0.4" fill="#fff" opacity="0.69"/><circle cx="500.5" cy="846.2" r="1.2" fill="#fff" opacity="0.85"/><circle cx="62.0" cy="212.4" r="1.0" fill="#fff" opacity="0.30"/><circle cx="549.7" cy="228.5" r="1.3" fill="#fff" opacity="0.24"/><circle cx="533.4" cy="752.7" r="2.1" fill="#fff" opacity="0.31"/><circle cx="152.6" cy="275.3" r="2.1" fill="#fff" opacity="0.87"/></g>
  <g opacity="0.16"><path d="M340 401 L860 392 L340 383 Z" fill="#ffe9a8"/><path d="M336.30766164564005 411.0460942407025 L840.9184627218782 536.9386652574117 L340.96640445748545 393.65942936749923 Z" fill="#ffe9a8"/><path d="M330.1410161513775 419.79422863405995 L784.9742261192857 672 L339.1410161513775 404.20577136594005 Z" fill="#ffe9a8"/><path d="M321.920310216783 426.6482322781408 L695.9797974644666 787.9797974644666 L334.6482322781408 413.920310216783 Z" fill="#ffe9a8"/><path d="M312.20577136594005 431.1410161513775 L580 876.9742261192856 L327.79422863405995 422.1410161513775 Z" fill="#ffe9a8"/><path d="M301.65942936749923 432.96640445748545 L444.9386652574116 932.9184627218782 L319.0460942407025 428.30766164564005 Z" fill="#ffe9a8"/><path d="M291 432 L300.00000000000006 952 L309 432 Z" fill="#ffe9a8"/><path d="M280.9539057592975 428.30766164564005 L155.06133474258846 932.9184627218782 L298.34057063250077 432.96640445748545 Z" fill="#ffe9a8"/><path d="M272.20577136594005 422.1410161513775 L20.000000000000114 876.9742261192857 L287.79422863405995 431.1410161513775 Z" fill="#ffe9a8"/><path d="M265.3517677218592 413.920310216783 L-95.97979746446657 787.9797974644666 L278.079689783217 426.6482322781408 Z" fill="#ffe9a8"/><path d="M260.8589838486225 404.20577136594005 L-184.97422611928567 672 L269.8589838486225 419.79422863405995 Z" fill="#ffe9a8"/><path d="M259.03359554251455 393.65942936749923 L-240.9184627218782 536.9386652574118 L263.69233835435995 411.0460942407025 Z" fill="#ffe9a8"/><path d="M260 383 L-260 392.00000000000006 L260 401 Z" fill="#ffe9a8"/><path d="M263.69233835435995 372.9539057592975 L-240.9184627218782 247.06133474258834 L259.03359554251455 390.34057063250077 Z" fill="#ffe9a8"/><path d="M269.8589838486224 364.20577136594005 L-184.97422611928573 112.00000000000017 L260.8589838486224 379.79422863405995 Z" fill="#ffe9a8"/><path d="M278.079689783217 357.3517677218592 L-95.97979746446686 -3.979797464466401 L265.3517677218592 370.079689783217 Z" fill="#ffe9a8"/><path d="M287.79422863405995 352.8589838486225 L19.999999999999773 -92.97422611928556 L272.20577136594005 361.8589838486225 Z" fill="#ffe9a8"/><path d="M298.34057063250077 351.03359554251455 L155.06133474258846 -148.9184627218782 L280.9539057592975 355.69233835435995 Z" fill="#ffe9a8"/><path d="M309 352 L299.9999999999999 -168 L291 352 Z" fill="#ffe9a8"/><path d="M319.0460942407024 355.69233835435995 L444.93866525741134 -148.9184627218783 L301.6594293674992 351.03359554251455 Z" fill="#ffe9a8"/><path d="M327.79422863405995 361.8589838486225 L580 -92.97422611928562 L312.20577136594005 352.8589838486225 Z" fill="#ffe9a8"/><path d="M334.6482322781408 370.079689783217 L695.9797974644665 -3.979797464466685 L321.920310216783 357.3517677218592 Z" fill="#ffe9a8"/><path d="M339.1410161513775 379.79422863405995 L784.9742261192855 111.99999999999977 L330.1410161513775 364.20577136594005 Z" fill="#ffe9a8"/><path d="M340.96640445748545 390.34057063250077 L840.9184627218781 247.06133474258792 L336.30766164564005 372.9539057592975 Z" fill="#ffe9a8"/></g>
  <circle cx="300" cy="392" r="230" fill="url(#glow)"/>
  <g opacity="0.95">
    <circle cx="300" cy="392" r="176" fill="#140f33"/>
    <circle cx="300" cy="392" r="176" fill="#ffc24b" opacity="0.12"/>
    <circle cx="300" cy="392" r="176" fill="none" stroke="#f4d35e" stroke-width="2" opacity="0.5"/>
    <circle cx="300" cy="392" r="188" fill="none" stroke="#f4d35e" stroke-width="1" opacity="0.3"/>
  </g>
  
    <path d="M0 760 Q 300 700 600 760 L600 900 L0 900 Z" fill="#0a0716"/>
    <path d="M0 760 Q 300 700 600 760" fill="none" stroke="#f4d35e" stroke-width="2" opacity="0.45"/>
    <path d="M0 812 Q 300 768 600 812 L600 900 L0 900 Z" fill="#000" opacity="0.35"/>
    <g fill="#ffc24b" opacity="0.3">
      <circle cx="120" cy="792" r="3"/><circle cx="300" cy="772" r="3"/><circle cx="470" cy="792" r="3"/>
    </g>

  <!-- 象徴のイラスト（大きめに） -->
  <g transform="translate(300 392) scale(1.42) translate(-300 -392)">
    
    <line x1="370.0" y1="392.0" x2="412.0" y2="392.0" stroke="#f4d35e" stroke-width="6" stroke-linecap="round"/><line x1="364.7" y1="418.8" x2="420.1" y2="441.7" stroke="#f4d35e" stroke-width="4" stroke-linecap="round"/><line x1="349.5" y1="441.5" x2="379.2" y2="471.2" stroke="#f4d35e" stroke-width="6" stroke-linecap="round"/><line x1="326.8" y1="456.7" x2="349.7" y2="512.1" stroke="#f4d35e" stroke-width="4" stroke-linecap="round"/><line x1="300.0" y1="462.0" x2="300.0" y2="504.0" stroke="#f4d35e" stroke-width="6" stroke-linecap="round"/><line x1="273.2" y1="456.7" x2="250.3" y2="512.1" stroke="#f4d35e" stroke-width="4" stroke-linecap="round"/><line x1="250.5" y1="441.5" x2="220.8" y2="471.2" stroke="#f4d35e" stroke-width="6" stroke-linecap="round"/><line x1="235.3" y1="418.8" x2="179.9" y2="441.7" stroke="#f4d35e" stroke-width="4" stroke-linecap="round"/><line x1="230.0" y1="392.0" x2="188.0" y2="392.0" stroke="#f4d35e" stroke-width="6" stroke-linecap="round"/><line x1="235.3" y1="365.2" x2="179.9" y2="342.3" stroke="#f4d35e" stroke-width="4" stroke-linecap="round"/><line x1="250.5" y1="342.5" x2="220.8" y2="312.8" stroke="#f4d35e" stroke-width="6" stroke-linecap="round"/><line x1="273.2" y1="327.3" x2="250.3" y2="271.9" stroke="#f4d35e" stroke-width="4" stroke-linecap="round"/><line x1="300.0" y1="322.0" x2="300.0" y2="280.0" stroke="#f4d35e" stroke-width="6" stroke-linecap="round"/><line x1="326.8" y1="327.3" x2="349.7" y2="271.9" stroke="#f4d35e" stroke-width="4" stroke-linecap="round"/><line x1="349.5" y1="342.5" x2="379.2" y2="312.8" stroke="#f4d35e" stroke-width="6" stroke-linecap="round"/><line x1="364.7" y1="365.2" x2="420.1" y2="342.3" stroke="#f4d35e" stroke-width="4" stroke-linecap="round"/>
    <circle cx="300" cy="392" r="62" fill="#ffc24b" opacity="0.9"/>
    <circle cx="300" cy="392" r="62" fill="none" stroke="#f4d35e" stroke-width="3"/>
    <circle cx="300" cy="392" r="44" fill="#fff" opacity="0.85"/>
  </g>

  <rect width="600" height="900" fill="url(#vig)"/>
</svg>