<svg xmlns="http://www.w3.org/2000/svg" viewBox="0 0 600 900" width="600" height="900">
  <defs>
    <radialGradient id="bg" cx="50%" cy="40%" r="78%">
      <stop offset="0%" stop-color="#172a5e"/>
      <stop offset="100%" stop-color="#070a1f"/>
    </radialGradient>
    <radialGradient id="glow" cx="50%" cy="50%" r="50%">
      <stop offset="0%" stop-color="#52d98a" stop-opacity="0.6"/>
      <stop offset="55%" stop-color="#52d98a" stop-opacity="0.12"/>
      <stop offset="100%" stop-color="#52d98a" stop-opacity="0"/>
    </radialGradient>
    <radialGradient id="vig" cx="50%" cy="46%" r="72%">
      <stop offset="62%" stop-color="#000" stop-opacity="0"/>
      <stop offset="100%" stop-color="#000" stop-opacity="0.55"/>
    </radialGradient>
  </defs>

  <rect width="600" height="900" fill="url(#bg)"/>
  <g><circle cx="215.2" cy="42.2" r="1.7" fill="#fff" opacity="0.52"/><circle cx="64.3" cy="213.6" r="1.4" fill="#fff" opacity="0.31"/><circle cx="558.9" cy="163.7" r="1.9" fill="#fff" opacity="0.23"/><circle cx="43.4" cy="416.1" r="0.9" fill="#fff" opacity="0.49"/><circle cx="57.3" cy="219.6" r="1.5" fill="#fff" opacity="0.22"/><circle cx="406.0" cy="73.5" r="1.1" fill="#fff" opacity="0.30"/><circle cx="535.1" cy="863.6" r="1.9" fill="#fff" opacity="0.28"/><circle cx="53.4" cy="368.6" r="2.0" fill="#fff" opacity="0.52"/><circle cx="486.7" cy="289.0" r="1.9" fill="#fff" opacity="0.74"/><circle cx="108.6" cy="729.8" r="1.1" fill="#fff" opacity="0.32"/><circle cx="113.1" cy="719.1" r="1.1" fill="#fff" opacity="0.29"/><circle cx="280.9" cy="94.0" r="2.1" fill="#fff" opacity="0.55"/><circle cx="182.1" cy="199.8" r="1.4" fill="#fff" opacity="0.82"/><circle cx="92.5" cy="105.1" r="0.9" fill="#fff" opacity="0.73"/><circle cx="338.3" cy="121.2" r="1.0" fill="#fff" opacity="0.32"/><circle cx="288.2" cy="699.7" r="0.5" fill="#fff" opacity="0.30"/><circle cx="565.7" cy="504.3" r="2.0" fill="#fff" opacity="0.44"/><circle cx="149.3" cy="76.8" r="1.2" fill="#fff" opacity="0.71"/><circle cx="165.5" cy="776.4" r="0.9" fill="#fff" opacity="0.32"/><circle cx="471.8" cy="766.7" r="1.5" fill="#fff" opacity="0.86"/><circle cx="436.1" cy="148.2" r="1.4" fill="#fff" opacity="0.90"/><circle cx="528.3" cy="163.6" r="2.1" fill="#fff" opacity="0.80"/><circle cx="339.4" cy="182.4" r="2.0" fill="#fff" opacity="0.80"/><circle cx="460.3" cy="43.7" r="1.0" fill="#fff" opacity="0.37"/><circle cx="360.7" cy="606.1" r="1.7" fill="#fff" opacity="0.77"/><circle cx="358.9" cy="98.4" r="2.1" fill="#fff" opacity="0.27"/><circle cx="557.0" cy="755.1" r="1.4" fill="#fff" opacity="0.43"/><circle cx="457.2" cy="699.7" r="2.0" fill="#fff" opacity="0.54"/><circle cx="525.7" cy="527.0" r="0.8" fill="#fff" opacity="0.88"/><circle cx="101.7" cy="426.5" r="2.0" fill="#fff" opacity="0.28"/><circle cx="88.1" cy="367.4" r="0.4" fill="#fff" opacity="0.54"/><circle cx="66.3" cy="41.2" r="0.6" fill="#fff" opacity="0.46"/><circle cx="379.7" cy="575.8" r="1.1" fill="#fff" opacity="0.27"/><circle cx="382.3" cy="86.3" r="1.2" fill="#fff" opacity="0.74"/><circle cx="361.5" cy="216.5" r="2.2" fill="#fff" opacity="0.65"/><circle cx="431.4" cy="754.4" r="0.6" fill="#fff" opacity="0.53"/><circle cx="241.0" cy="681.5" r="1.7" fill="#fff" opacity="0.44"/><circle cx="87.8" cy="320.0" r="0.8" fill="#fff" opacity="0.51"/><circle cx="171.6" cy="101.9" r="1.2" fill="#fff" opacity="0.52"/><circle cx="337.1" cy="861.3" r="1.1" fill="#fff" opacity="0.50"/><circle cx="499.3" cy="333.8" r="0.9" fill="#fff" opacity="0.90"/><circle cx="128.6" cy="575.8" r="0.4" fill="#fff" opacity="0.23"/><circle cx="563.6" cy="322.7" r="1.0" fill="#fff" opacity="0.23"/><circle cx="477.4" cy="278.4" r="1.9" fill="#fff" opacity="0.83"/><circle cx="324.2" cy="218.1" r="2.0" fill="#fff" opacity="0.44"/><circle cx="280.8" cy="826.0" r="1.5" fill="#fff" opacity="0.67"/><circle cx="179.7" cy="199.5" r="2.0" fill="#fff" opacity="0.48"/><circle cx="468.9" cy="196.8" r="1.8" fill="#fff" opacity="0.44"/><circle cx="503.2" cy="799.6" r="2.1" fill="#fff" opacity="0.72"/><circle cx="127.7" cy="674.6" r="1.1" fill="#fff" opacity="0.35"/><circle cx="172.1" cy="553.3" r="1.0" fill="#fff" opacity="0.72"/><circle cx="192.9" cy="201.2" r="1.9" fill="#fff" opacity="0.69"/><circle cx="545.3" cy="289.1" r="2.2" fill="#fff" opacity="0.54"/><circle cx="555.5" cy="767.4" r="1.8" fill="#fff" opacity="0.43"/><circle cx="478.3" cy="313.2" r="1.9" fill="#fff" opacity="0.86"/><circle cx="80.3" cy="98.5" r="2.0" fill="#fff" opacity="0.51"/><circle cx="195.9" cy="788.9" r="0.5" fill="#fff" opacity="0.33"/><circle cx="125.6" cy="166.8" r="0.8" fill="#fff" opacity="0.56"/><circle cx="51.8" cy="553.8" r="1.3" fill="#fff" opacity="0.44"/><circle cx="391.9" cy="215.8" r="1.3" fill="#fff" opacity="0.40"/></g>
  <g opacity="0.16"><path d="M340 401 L860 392 L340 383 Z" fill="#bcd0ff"/><path d="M336.30766164564005 411.0460942407025 L840.9184627218782 536.9386652574117 L340.96640445748545 393.65942936749923 Z" fill="#bcd0ff"/><path d="M330.1410161513775 419.79422863405995 L784.9742261192857 672 L339.1410161513775 404.20577136594005 Z" fill="#bcd0ff"/><path d="M321.920310216783 426.6482322781408 L695.9797974644666 787.9797974644666 L334.6482322781408 413.920310216783 Z" fill="#bcd0ff"/><path d="M312.20577136594005 431.1410161513775 L580 876.9742261192856 L327.79422863405995 422.1410161513775 Z" fill="#bcd0ff"/><path d="M301.65942936749923 432.96640445748545 L444.9386652574116 932.9184627218782 L319.0460942407025 428.30766164564005 Z" fill="#bcd0ff"/><path d="M291 432 L300.00000000000006 952 L309 432 Z" fill="#bcd0ff"/><path d="M280.9539057592975 428.30766164564005 L155.06133474258846 932.9184627218782 L298.34057063250077 432.96640445748545 Z" fill="#bcd0ff"/><path d="M272.20577136594005 422.1410161513775 L20.000000000000114 876.9742261192857 L287.79422863405995 431.1410161513775 Z" fill="#bcd0ff"/><path d="M265.3517677218592 413.920310216783 L-95.97979746446657 787.9797974644666 L278.079689783217 426.6482322781408 Z" fill="#bcd0ff"/><path d="M260.8589838486225 404.20577136594005 L-184.97422611928567 672 L269.8589838486225 419.79422863405995 Z" fill="#bcd0ff"/><path d="M259.03359554251455 393.65942936749923 L-240.9184627218782 536.9386652574118 L263.69233835435995 411.0460942407025 Z" fill="#bcd0ff"/><path d="M260 383 L-260 392.00000000000006 L260 401 Z" fill="#bcd0ff"/><path d="M263.69233835435995 372.9539057592975 L-240.9184627218782 247.06133474258834 L259.03359554251455 390.34057063250077 Z" fill="#bcd0ff"/><path d="M269.8589838486224 364.20577136594005 L-184.97422611928573 112.00000000000017 L260.8589838486224 379.79422863405995 Z" fill="#bcd0ff"/><path d="M278.079689783217 357.3517677218592 L-95.97979746446686 -3.979797464466401 L265.3517677218592 370.079689783217 Z" fill="#bcd0ff"/><path d="M287.79422863405995 352.8589838486225 L19.999999999999773 -92.97422611928556 L272.20577136594005 361.8589838486225 Z" fill="#bcd0ff"/><path d="M298.34057063250077 351.03359554251455 L155.06133474258846 -148.9184627218782 L280.9539057592975 355.69233835435995 Z" fill="#bcd0ff"/><path d="M309 352 L299.9999999999999 -168 L291 352 Z" fill="#bcd0ff"/><path d="M319.0460942407024 355.69233835435995 L444.93866525741134 -148.9184627218783 L301.6594293674992 351.03359554251455 Z" fill="#bcd0ff"/><path d="M327.79422863405995 361.8589838486225 L580 -92.97422611928562 L312.20577136594005 352.8589838486225 Z" fill="#bcd0ff"/><path d="M334.6482322781408 370.079689783217 L695.9797974644665 -3.979797464466685 L321.920310216783 357.3517677218592 Z" fill="#bcd0ff"/><path d="M339.1410161513775 379.79422863405995 L784.9742261192855 111.99999999999977 L330.1410161513775 364.20577136594005 Z" fill="#bcd0ff"/><path d="M340.96640445748545 390.34057063250077 L840.9184627218781 247.06133474258792 L336.30766164564005 372.9539057592975 Z" fill="#bcd0ff"/></g>
  <circle cx="300" cy="392" r="230" fill="url(#glow)"/>
  <g opacity="0.95">
      <circle cx="300" cy="392" r="176" fill="#0a1030"/>
      <ellipse cx="300" cy="392" rx="210" ry="176" fill="none" stroke="#9db4ff" stroke-width="1.5" opacity="0.4" transform="rotate(20 300 392)"/>
      <circle cx="300" cy="392" r="176" fill="none" stroke="#9db4ff" stroke-width="1.5" opacity="0.5"/>
    </g>
  
    <path d="M0 760 Q 300 700 600 760 L600 900 L0 900 Z" fill="#0a0716"/>
    <path d="M0 760 Q 300 700 600 760" fill="none" stroke="#9db4ff" stroke-width="2" opacity="0.45"/>
    <path d="M0 812 Q 300 768 600 812 L600 900 L0 900 Z" fill="#000" opacity="0.35"/>
    <g fill="#52d98a" opacity="0.3">
      <circle cx="120" cy="792" r="3"/><circle cx="300" cy="772" r="3"/><circle cx="470" cy="792" r="3"/>
    </g>

  <!-- 象徴のイラスト（大きめに） -->
  <g transform="translate(300 392) scale(1.42) translate(-300 -392)">
    
    <circle cx="300" cy="372" r="86" fill="#52d98a" opacity="0.22"/>
    <path d="M300 470 L300 360" stroke="#9db4ff" stroke-width="8" stroke-linecap="round"/>
    <path d="M300 392 L262 360 M300 392 L338 360 M300 416 L274 396 M300 416 L326 396"
      stroke="#9db4ff" stroke-width="5" stroke-linecap="round"/>
    <path d="M300 300 C 340 330, 356 360, 332 392 C 360 380, 360 350, 340 332
      C 360 340, 366 364, 348 388 C 384 372, 372 326, 320 312
      C 300 304, 300 300, 300 300 Z" fill="#52d98a" opacity="0.8"/>
    <path d="M300 300 C 260 330, 244 360, 268 392 C 240 380, 240 350, 260 332
      C 240 340, 234 364, 252 388 C 216 372, 228 326, 280 312
      C 300 304, 300 300, 300 300 Z" fill="#52d98a" opacity="0.8"/>
    <g fill="#fff">
      <circle cx="276" cy="350" r="2.5"/><circle cx="322" cy="362" r="2.5"/>
      <circle cx="300" cy="338" r="3"/><circle cx="312" cy="384" r="2"/>
    </g>
  </g>

  <rect width="600" height="900" fill="url(#vig)"/>
</svg>