<svg xmlns="http://www.w3.org/2000/svg" viewBox="0 0 600 900" width="600" height="900" font-family="'Noto Sans JP','Hiragino Sans','Hiragino Kaku Gothic ProN','Yu Gothic',Meiryo,IPAGothic,sans-serif">
  <defs>
    <radialGradient id="bg" cx="50%" cy="42%" r="75%">
      <stop offset="0%" stop-color="#172a5e"/>
      <stop offset="100%" stop-color="#070a1f"/>
    </radialGradient>
    <radialGradient id="glow" cx="50%" cy="50%" r="50%">
      <stop offset="0%" stop-color="#3fd3e0" stop-opacity="0.55"/>
      <stop offset="100%" stop-color="#3fd3e0" stop-opacity="0"/>
    </radialGradient>
  </defs>

  <rect width="600" height="900" rx="26" fill="url(#bg)"/>
  <g><circle cx="233.6" cy="826.1" r="1.6" fill="#fff" opacity="0.76"/><circle cx="406.9" cy="188.6" r="1.2" fill="#fff" opacity="0.67"/><circle cx="523.0" cy="614.4" r="1.5" fill="#fff" opacity="0.67"/><circle cx="345.5" cy="185.2" r="0.8" fill="#fff" opacity="0.72"/><circle cx="97.2" cy="662.9" r="1.0" fill="#fff" opacity="0.21"/><circle cx="265.2" cy="734.2" r="1.2" fill="#fff" opacity="0.38"/><circle cx="549.6" cy="604.2" r="1.3" fill="#fff" opacity="0.85"/><circle cx="193.2" cy="171.6" r="0.9" fill="#fff" opacity="0.90"/><circle cx="111.8" cy="127.6" r="0.6" fill="#fff" opacity="0.65"/><circle cx="291.3" cy="115.8" r="1.3" fill="#fff" opacity="0.27"/><circle cx="302.3" cy="826.9" r="1.4" fill="#fff" opacity="0.21"/><circle cx="114.0" cy="450.0" r="1.9" fill="#fff" opacity="0.47"/><circle cx="294.3" cy="42.2" r="1.1" fill="#fff" opacity="0.87"/><circle cx="279.3" cy="787.4" r="2.2" fill="#fff" opacity="0.35"/><circle cx="88.9" cy="127.1" r="0.6" fill="#fff" opacity="0.59"/><circle cx="115.5" cy="599.5" r="1.1" fill="#fff" opacity="0.33"/><circle cx="463.9" cy="256.9" r="1.4" fill="#fff" opacity="0.77"/><circle cx="361.0" cy="706.3" r="1.6" fill="#fff" opacity="0.37"/><circle cx="56.9" cy="73.3" r="1.4" fill="#fff" opacity="0.70"/><circle cx="192.9" cy="161.5" r="1.4" fill="#fff" opacity="0.44"/><circle cx="558.4" cy="583.2" r="1.9" fill="#fff" opacity="0.54"/><circle cx="51.3" cy="228.5" r="1.7" fill="#fff" opacity="0.37"/><circle cx="498.8" cy="577.8" r="2.2" fill="#fff" opacity="0.85"/><circle cx="105.5" cy="800.9" r="1.8" fill="#fff" opacity="0.54"/><circle cx="207.9" cy="708.2" r="1.1" fill="#fff" opacity="0.51"/><circle cx="440.4" cy="725.6" r="0.5" fill="#fff" opacity="0.21"/><circle cx="539.2" cy="375.5" r="1.3" fill="#fff" opacity="0.29"/><circle cx="499.8" cy="208.4" r="1.3" fill="#fff" opacity="0.53"/><circle cx="62.1" cy="482.1" r="1.0" fill="#fff" opacity="0.35"/><circle cx="121.9" cy="161.8" r="1.7" fill="#fff" opacity="0.67"/><circle cx="114.0" cy="867.8" r="1.2" fill="#fff" opacity="0.51"/><circle cx="568.2" cy="644.7" r="2.1" fill="#fff" opacity="0.49"/><circle cx="395.9" cy="838.9" r="1.0" fill="#fff" opacity="0.74"/><circle cx="258.8" cy="204.0" r="1.6" fill="#fff" opacity="0.78"/><circle cx="475.7" cy="305.8" r="1.2" fill="#fff" opacity="0.70"/><circle cx="52.3" cy="676.7" r="1.6" fill="#fff" opacity="0.20"/><circle cx="537.5" cy="814.7" r="1.8" fill="#fff" opacity="0.29"/><circle cx="201.4" cy="563.4" r="0.7" fill="#fff" opacity="0.80"/><circle cx="490.7" cy="624.7" r="1.4" fill="#fff" opacity="0.58"/><circle cx="267.3" cy="77.4" r="1.0" fill="#fff" opacity="0.41"/><circle cx="324.1" cy="596.0" r="1.2" fill="#fff" opacity="0.84"/><circle cx="81.8" cy="850.0" r="1.3" fill="#fff" opacity="0.66"/><circle cx="388.2" cy="760.4" r="0.8" fill="#fff" opacity="0.74"/><circle cx="333.9" cy="852.6" r="1.8" fill="#fff" opacity="0.67"/><circle cx="400.6" cy="796.6" r="1.5" fill="#fff" opacity="0.38"/><circle cx="456.0" cy="678.0" r="1.7" fill="#fff" opacity="0.34"/><circle cx="180.4" cy="754.2" r="0.5" fill="#fff" opacity="0.73"/><circle cx="103.3" cy="653.4" r="1.1" fill="#fff" opacity="0.85"/><circle cx="452.8" cy="589.9" r="0.8" fill="#fff" opacity="0.34"/><circle cx="471.4" cy="627.8" r="1.5" fill="#fff" opacity="0.89"/><circle cx="51.3" cy="592.5" r="0.5" fill="#fff" opacity="0.80"/><circle cx="519.5" cy="588.7" r="0.7" fill="#fff" opacity="0.67"/><circle cx="517.7" cy="809.4" r="2.1" fill="#fff" opacity="0.23"/><circle cx="463.6" cy="651.3" r="1.6" fill="#fff" opacity="0.83"/><circle cx="550.7" cy="439.6" r="0.8" fill="#fff" opacity="0.74"/></g>
  <g opacity="0.16"><path d="M340 401 L860 392 L340 383 Z" fill="#bcd0ff"/><path d="M336.30766164564005 411.0460942407025 L840.9184627218782 536.9386652574117 L340.96640445748545 393.65942936749923 Z" fill="#bcd0ff"/><path d="M330.1410161513775 419.79422863405995 L784.9742261192857 672 L339.1410161513775 404.20577136594005 Z" fill="#bcd0ff"/><path d="M321.920310216783 426.6482322781408 L695.9797974644666 787.9797974644666 L334.6482322781408 413.920310216783 Z" fill="#bcd0ff"/><path d="M312.20577136594005 431.1410161513775 L580 876.9742261192856 L327.79422863405995 422.1410161513775 Z" fill="#bcd0ff"/><path d="M301.65942936749923 432.96640445748545 L444.9386652574116 932.9184627218782 L319.0460942407025 428.30766164564005 Z" fill="#bcd0ff"/><path d="M291 432 L300.00000000000006 952 L309 432 Z" fill="#bcd0ff"/><path d="M280.9539057592975 428.30766164564005 L155.06133474258846 932.9184627218782 L298.34057063250077 432.96640445748545 Z" fill="#bcd0ff"/><path d="M272.20577136594005 422.1410161513775 L20.000000000000114 876.9742261192857 L287.79422863405995 431.1410161513775 Z" fill="#bcd0ff"/><path d="M265.3517677218592 413.920310216783 L-95.97979746446657 787.9797974644666 L278.079689783217 426.6482322781408 Z" fill="#bcd0ff"/><path d="M260.8589838486225 404.20577136594005 L-184.97422611928567 672 L269.8589838486225 419.79422863405995 Z" fill="#bcd0ff"/><path d="M259.03359554251455 393.65942936749923 L-240.9184627218782 536.9386652574118 L263.69233835435995 411.0460942407025 Z" fill="#bcd0ff"/><path d="M260 383 L-260 392.00000000000006 L260 401 Z" fill="#bcd0ff"/><path d="M263.69233835435995 372.9539057592975 L-240.9184627218782 247.06133474258834 L259.03359554251455 390.34057063250077 Z" fill="#bcd0ff"/><path d="M269.8589838486224 364.20577136594005 L-184.97422611928573 112.00000000000017 L260.8589838486224 379.79422863405995 Z" fill="#bcd0ff"/><path d="M278.079689783217 357.3517677218592 L-95.97979746446686 -3.979797464466401 L265.3517677218592 370.079689783217 Z" fill="#bcd0ff"/><path d="M287.79422863405995 352.8589838486225 L19.999999999999773 -92.97422611928556 L272.20577136594005 361.8589838486225 Z" fill="#bcd0ff"/><path d="M298.34057063250077 351.03359554251455 L155.06133474258846 -148.9184627218782 L280.9539057592975 355.69233835435995 Z" fill="#bcd0ff"/><path d="M309 352 L299.9999999999999 -168 L291 352 Z" fill="#bcd0ff"/><path d="M319.0460942407024 355.69233835435995 L444.93866525741134 -148.9184627218783 L301.6594293674992 351.03359554251455 Z" fill="#bcd0ff"/><path d="M327.79422863405995 361.8589838486225 L580 -92.97422611928562 L312.20577136594005 352.8589838486225 Z" fill="#bcd0ff"/><path d="M334.6482322781408 370.079689783217 L695.9797974644665 -3.979797464466685 L321.920310216783 357.3517677218592 Z" fill="#bcd0ff"/><path d="M339.1410161513775 379.79422863405995 L784.9742261192855 111.99999999999977 L330.1410161513775 364.20577136594005 Z" fill="#bcd0ff"/><path d="M340.96640445748545 390.34057063250077 L840.9184627218781 247.06133474258792 L336.30766164564005 372.9539057592975 Z" fill="#bcd0ff"/></g>
  <circle cx="300" cy="392" r="200" fill="url(#glow)"/>

  <!-- 中央メダリオン -->
  <circle cx="300" cy="392" r="150" fill="#0b0820" opacity="0.55"/>
  <circle cx="300" cy="392" r="158" fill="none" stroke="#9db4ff" stroke-width="1.5" opacity="0.55"/><circle cx="300" cy="392" r="150" fill="none" stroke="#3fd3e0" stroke-width="2.5" opacity="0.9"/><circle cx="458.0" cy="392.0" r="3.4" fill="#9db4ff"/><circle cx="436.8" cy="471.0" r="3.4" fill="#9db4ff"/><circle cx="379.0" cy="528.8" r="3.4" fill="#9db4ff"/><circle cx="300.0" cy="550.0" r="3.4" fill="#9db4ff"/><circle cx="221.0" cy="528.8" r="3.4" fill="#9db4ff"/><circle cx="163.2" cy="471.0" r="3.4" fill="#9db4ff"/><circle cx="142.0" cy="392.0" r="3.4" fill="#9db4ff"/><circle cx="163.2" cy="313.0" r="3.4" fill="#9db4ff"/><circle cx="221.0" cy="255.2" r="3.4" fill="#9db4ff"/><circle cx="300.0" cy="234.0" r="3.4" fill="#9db4ff"/><circle cx="379.0" cy="255.2" r="3.4" fill="#9db4ff"/><circle cx="436.8" cy="313.0" r="3.4" fill="#9db4ff"/>
  
    <line x1="80" y1="430" x2="300" y2="430" stroke="#fff" stroke-width="5" opacity="0.8"/>
    <line x1="372" y1="430" x2="540" y2="360" stroke="#ff5d73" stroke-width="5" opacity="0.85" stroke-linecap="round"/><line x1="372" y1="430" x2="540" y2="376" stroke="#ffd166" stroke-width="5" opacity="0.85" stroke-linecap="round"/><line x1="372" y1="430" x2="540" y2="392" stroke="#06d6a0" stroke-width="5" opacity="0.85" stroke-linecap="round"/><line x1="372" y1="430" x2="540" y2="408" stroke="#4cc9f0" stroke-width="5" opacity="0.85" stroke-linecap="round"/><line x1="372" y1="430" x2="540" y2="424" stroke="#b186ff" stroke-width="5" opacity="0.85" stroke-linecap="round"/>
    <path d="M300 304 L372 446 L228 446 Z" fill="#3fd3e0" opacity="0.30"/>
    <path d="M300 304 L372 446 L228 446 Z" fill="none" stroke="#9db4ff" stroke-width="3"/>

  <!-- ローマ数字の銘板 -->
  <g>
    <rect x="240" y="74" width="120" height="46" rx="10" fill="#0b0820" opacity="0.6" stroke="#9db4ff" stroke-width="1.5"/>
    <text x="300" y="106" text-anchor="middle" font-size="26" letter-spacing="3" fill="#9db4ff" font-weight="700">VI</text>
  </g>

  <!-- 下部バナー -->
  <g>
    <path d="M70 792 L530 792 L512 836 L530 880 L70 880 L88 836 Z" fill="#0b0820" opacity="0.72" stroke="#9db4ff" stroke-width="1.5"/>
    <text x="300" y="838" text-anchor="middle" font-size="40" font-weight="900" fill="#fff">自己表現タイプ</text>
    <text x="300" y="866" text-anchor="middle" font-size="15" letter-spacing="4" fill="#9db4ff" font-weight="700">THE ARTIST</text>
  </g>

  <!-- 装飾枠 -->
  <rect x="20" y="20" width="560" height="860" rx="18" fill="none" stroke="#9db4ff" stroke-width="3"/>
  <rect x="32" y="32" width="536" height="836" rx="12" fill="none" stroke="#9db4ff" stroke-width="1" opacity="0.5"/>
  <g transform="translate(44 44)" fill="#9db4ff">
    <polygon points="0,-9 9,0 0,9 -9,0"/>
    <circle cx="0" cy="0" r="2.5" fill="#0c0823"/>
  </g>
  <g transform="translate(556 44)" fill="#9db4ff">
    <polygon points="0,-9 9,0 0,9 -9,0"/>
    <circle cx="0" cy="0" r="2.5" fill="#0c0823"/>
  </g>
  <g transform="translate(44 856)" fill="#9db4ff">
    <polygon points="0,-9 9,0 0,9 -9,0"/>
    <circle cx="0" cy="0" r="2.5" fill="#0c0823"/>
  </g>
  <g transform="translate(556 856)" fill="#9db4ff">
    <polygon points="0,-9 9,0 0,9 -9,0"/>
    <circle cx="0" cy="0" r="2.5" fill="#0c0823"/>
  </g>
</svg>