<svg xmlns="http://www.w3.org/2000/svg" viewBox="0 0 600 900" width="600" height="900" font-family="'Noto Sans JP','Hiragino Sans','Hiragino Kaku Gothic ProN','Yu Gothic',Meiryo,IPAGothic,sans-serif">
  <defs>
    <radialGradient id="bg" cx="50%" cy="42%" r="75%">
      <stop offset="0%" stop-color="#241a52"/>
      <stop offset="100%" stop-color="#0c0823"/>
    </radialGradient>
    <radialGradient id="glow" cx="50%" cy="50%" r="50%">
      <stop offset="0%" stop-color="#ffa05b" stop-opacity="0.55"/>
      <stop offset="100%" stop-color="#ffa05b" stop-opacity="0"/>
    </radialGradient>
  </defs>

  <rect width="600" height="900" rx="26" fill="url(#bg)"/>
  <g><circle cx="243.2" cy="798.6" r="2.1" fill="#fff" opacity="0.72"/><circle cx="252.5" cy="191.6" r="1.8" fill="#fff" opacity="0.85"/><circle cx="569.9" cy="524.6" r="1.7" fill="#fff" opacity="0.36"/><circle cx="469.5" cy="668.8" r="0.5" fill="#fff" opacity="0.83"/><circle cx="213.6" cy="806.4" r="1.1" fill="#fff" opacity="0.82"/><circle cx="310.5" cy="745.6" r="0.7" fill="#fff" opacity="0.85"/><circle cx="30.8" cy="718.8" r="0.5" fill="#fff" opacity="0.45"/><circle cx="317.5" cy="697.0" r="1.6" fill="#fff" opacity="0.41"/><circle cx="169.1" cy="140.3" r="2.1" fill="#fff" opacity="0.82"/><circle cx="94.5" cy="372.1" r="1.8" fill="#fff" opacity="0.67"/><circle cx="128.4" cy="468.3" r="2.0" fill="#fff" opacity="0.49"/><circle cx="512.2" cy="719.4" r="0.7" fill="#fff" opacity="0.70"/><circle cx="380.7" cy="739.6" r="1.1" fill="#fff" opacity="0.41"/><circle cx="553.1" cy="58.4" r="0.6" fill="#fff" opacity="0.80"/><circle cx="120.7" cy="816.4" r="2.0" fill="#fff" opacity="0.23"/><circle cx="547.7" cy="528.2" r="0.5" fill="#fff" opacity="0.34"/><circle cx="471.8" cy="570.1" r="1.7" fill="#fff" opacity="0.73"/><circle cx="47.3" cy="681.1" r="0.9" fill="#fff" opacity="0.32"/><circle cx="367.3" cy="121.0" r="2.2" fill="#fff" opacity="0.63"/><circle cx="101.6" cy="521.2" r="1.7" fill="#fff" opacity="0.87"/><circle cx="503.8" cy="787.0" r="0.5" fill="#fff" opacity="0.42"/><circle cx="471.2" cy="505.3" r="1.2" fill="#fff" opacity="0.54"/><circle cx="39.0" cy="849.9" r="2.1" fill="#fff" opacity="0.25"/><circle cx="98.6" cy="87.5" r="1.1" fill="#fff" opacity="0.75"/><circle cx="118.6" cy="35.4" r="1.1" fill="#fff" opacity="0.33"/><circle cx="98.1" cy="154.0" r="0.9" fill="#fff" opacity="0.51"/><circle cx="431.6" cy="861.7" r="1.3" fill="#fff" opacity="0.86"/><circle cx="39.2" cy="800.3" r="1.4" fill="#fff" opacity="0.78"/><circle cx="154.2" cy="590.6" r="2.1" fill="#fff" opacity="0.82"/><circle cx="223.2" cy="194.3" r="2.2" fill="#fff" opacity="0.34"/><circle cx="35.2" cy="745.1" r="0.6" fill="#fff" opacity="0.60"/><circle cx="246.5" cy="106.6" r="1.0" fill="#fff" opacity="0.84"/><circle cx="259.1" cy="782.1" r="2.2" fill="#fff" opacity="0.25"/><circle cx="118.5" cy="460.4" r="0.5" fill="#fff" opacity="0.21"/><circle cx="242.1" cy="126.1" r="0.9" fill="#fff" opacity="0.29"/><circle cx="231.3" cy="845.2" r="1.5" fill="#fff" opacity="0.43"/><circle cx="488.3" cy="321.9" r="1.0" fill="#fff" opacity="0.84"/><circle cx="457.6" cy="34.3" r="0.8" fill="#fff" opacity="0.30"/><circle cx="440.2" cy="107.9" r="1.6" fill="#fff" opacity="0.45"/><circle cx="65.1" cy="668.2" r="1.0" fill="#fff" opacity="0.40"/><circle cx="191.6" cy="586.1" r="1.9" fill="#fff" opacity="0.33"/><circle cx="151.2" cy="796.7" r="2.2" fill="#fff" opacity="0.27"/><circle cx="297.7" cy="722.5" r="0.9" fill="#fff" opacity="0.37"/><circle cx="568.1" cy="619.1" r="1.3" fill="#fff" opacity="0.45"/><circle cx="459.9" cy="293.7" r="0.8" fill="#fff" opacity="0.62"/><circle cx="81.5" cy="325.5" r="1.9" fill="#fff" opacity="0.45"/><circle cx="176.5" cy="39.3" r="1.4" fill="#fff" opacity="0.48"/><circle cx="146.9" cy="43.6" r="1.8" fill="#fff" opacity="0.88"/><circle cx="536.5" cy="397.2" r="1.6" fill="#fff" opacity="0.37"/><circle cx="513.7" cy="612.7" r="2.1" fill="#fff" opacity="0.56"/><circle cx="190.4" cy="627.6" r="1.5" fill="#fff" opacity="0.57"/><circle cx="452.2" cy="64.8" r="1.6" fill="#fff" opacity="0.64"/><circle cx="252.4" cy="786.1" r="1.2" fill="#fff" opacity="0.82"/><circle cx="100.3" cy="614.6" r="1.0" fill="#fff" opacity="0.52"/><circle cx="565.8" cy="465.0" r="0.7" fill="#fff" opacity="0.33"/><circle cx="182.8" cy="162.0" r="1.1" fill="#fff" opacity="0.60"/></g>
  <g opacity="0.16"><path d="M340 401 L860 392 L340 383 Z" fill="#ffe9a8"/><path d="M336.30766164564005 411.0460942407025 L840.9184627218782 536.9386652574117 L340.96640445748545 393.65942936749923 Z" fill="#ffe9a8"/><path d="M330.1410161513775 419.79422863405995 L784.9742261192857 672 L339.1410161513775 404.20577136594005 Z" fill="#ffe9a8"/><path d="M321.920310216783 426.6482322781408 L695.9797974644666 787.9797974644666 L334.6482322781408 413.920310216783 Z" fill="#ffe9a8"/><path d="M312.20577136594005 431.1410161513775 L580 876.9742261192856 L327.79422863405995 422.1410161513775 Z" fill="#ffe9a8"/><path d="M301.65942936749923 432.96640445748545 L444.9386652574116 932.9184627218782 L319.0460942407025 428.30766164564005 Z" fill="#ffe9a8"/><path d="M291 432 L300.00000000000006 952 L309 432 Z" fill="#ffe9a8"/><path d="M280.9539057592975 428.30766164564005 L155.06133474258846 932.9184627218782 L298.34057063250077 432.96640445748545 Z" fill="#ffe9a8"/><path d="M272.20577136594005 422.1410161513775 L20.000000000000114 876.9742261192857 L287.79422863405995 431.1410161513775 Z" fill="#ffe9a8"/><path d="M265.3517677218592 413.920310216783 L-95.97979746446657 787.9797974644666 L278.079689783217 426.6482322781408 Z" fill="#ffe9a8"/><path d="M260.8589838486225 404.20577136594005 L-184.97422611928567 672 L269.8589838486225 419.79422863405995 Z" fill="#ffe9a8"/><path d="M259.03359554251455 393.65942936749923 L-240.9184627218782 536.9386652574118 L263.69233835435995 411.0460942407025 Z" fill="#ffe9a8"/><path d="M260 383 L-260 392.00000000000006 L260 401 Z" fill="#ffe9a8"/><path d="M263.69233835435995 372.9539057592975 L-240.9184627218782 247.06133474258834 L259.03359554251455 390.34057063250077 Z" fill="#ffe9a8"/><path d="M269.8589838486224 364.20577136594005 L-184.97422611928573 112.00000000000017 L260.8589838486224 379.79422863405995 Z" fill="#ffe9a8"/><path d="M278.079689783217 357.3517677218592 L-95.97979746446686 -3.979797464466401 L265.3517677218592 370.079689783217 Z" fill="#ffe9a8"/><path d="M287.79422863405995 352.8589838486225 L19.999999999999773 -92.97422611928556 L272.20577136594005 361.8589838486225 Z" fill="#ffe9a8"/><path d="M298.34057063250077 351.03359554251455 L155.06133474258846 -148.9184627218782 L280.9539057592975 355.69233835435995 Z" fill="#ffe9a8"/><path d="M309 352 L299.9999999999999 -168 L291 352 Z" fill="#ffe9a8"/><path d="M319.0460942407024 355.69233835435995 L444.93866525741134 -148.9184627218783 L301.6594293674992 351.03359554251455 Z" fill="#ffe9a8"/><path d="M327.79422863405995 361.8589838486225 L580 -92.97422611928562 L312.20577136594005 352.8589838486225 Z" fill="#ffe9a8"/><path d="M334.6482322781408 370.079689783217 L695.9797974644665 -3.979797464466685 L321.920310216783 357.3517677218592 Z" fill="#ffe9a8"/><path d="M339.1410161513775 379.79422863405995 L784.9742261192855 111.99999999999977 L330.1410161513775 364.20577136594005 Z" fill="#ffe9a8"/><path d="M340.96640445748545 390.34057063250077 L840.9184627218781 247.06133474258792 L336.30766164564005 372.9539057592975 Z" fill="#ffe9a8"/></g>
  <circle cx="300" cy="392" r="200" fill="url(#glow)"/>

  <!-- 中央メダリオン -->
  <circle cx="300" cy="392" r="150" fill="#0b0820" opacity="0.55"/>
  <circle cx="300" cy="392" r="158" fill="none" stroke="#f4d35e" stroke-width="1.5" opacity="0.55"/><circle cx="300" cy="392" r="150" fill="none" stroke="#ffa05b" stroke-width="2.5" opacity="0.9"/><circle cx="458.0" cy="392.0" r="3.4" fill="#f4d35e"/><circle cx="446.0" cy="452.5" r="3.4" fill="#f4d35e"/><circle cx="411.7" cy="503.7" r="3.4" fill="#f4d35e"/><circle cx="360.5" cy="538.0" r="3.4" fill="#f4d35e"/><circle cx="300.0" cy="550.0" r="3.4" fill="#f4d35e"/><circle cx="239.5" cy="538.0" r="3.4" fill="#f4d35e"/><circle cx="188.3" cy="503.7" r="3.4" fill="#f4d35e"/><circle cx="154.0" cy="452.5" r="3.4" fill="#f4d35e"/><circle cx="142.0" cy="392.0" r="3.4" fill="#f4d35e"/><circle cx="154.0" cy="331.5" r="3.4" fill="#f4d35e"/><circle cx="188.3" cy="280.3" r="3.4" fill="#f4d35e"/><circle cx="239.5" cy="246.0" r="3.4" fill="#f4d35e"/><circle cx="300.0" cy="234.0" r="3.4" fill="#f4d35e"/><circle cx="360.5" cy="246.0" r="3.4" fill="#f4d35e"/><circle cx="411.7" cy="280.3" r="3.4" fill="#f4d35e"/><circle cx="446.0" cy="331.5" r="3.4" fill="#f4d35e"/>
  
    <polygon points="300,300 380,366 220,366" fill="#f4d35e" opacity="0.9"/>
    <rect x="244" y="366" width="112" height="112" rx="6" fill="#ffa05b" opacity="0.28" stroke="#ffa05b" stroke-width="3"/>
    <path d="M300 404 C 290 392, 270 396, 270 414 C 270 430, 294 442, 300 450
      C 306 442, 330 430, 330 414 C 330 396, 310 392, 300 404 Z" fill="#f4d35e"/>
    <rect x="286" y="452" width="28" height="26" fill="#f4d35e" opacity="0.5"/>

  <!-- ローマ数字の銘板 -->
  <g>
    <rect x="240" y="74" width="120" height="46" rx="10" fill="#0b0820" opacity="0.6" stroke="#f4d35e" stroke-width="1.5"/>
    <text x="300" y="106" text-anchor="middle" font-size="26" letter-spacing="3" fill="#f4d35e" font-weight="700">IX</text>
  </g>

  <!-- 下部バナー -->
  <g>
    <path d="M70 792 L530 792 L512 836 L530 880 L70 880 L88 836 Z" fill="#0b0820" opacity="0.72" stroke="#f4d35e" stroke-width="1.5"/>
    <text x="300" y="838" text-anchor="middle" font-size="40" font-weight="900" fill="#fff">家族愛タイプ</text>
    <text x="300" y="866" text-anchor="middle" font-size="15" letter-spacing="4" fill="#f4d35e" font-weight="700">THE GUARDIAN</text>
  </g>

  <!-- 装飾枠 -->
  <rect x="20" y="20" width="560" height="860" rx="18" fill="none" stroke="#f4d35e" stroke-width="3"/>
  <rect x="32" y="32" width="536" height="836" rx="12" fill="none" stroke="#f4d35e" stroke-width="1" opacity="0.5"/>
  <g transform="translate(44 44)" fill="#f4d35e">
    <polygon points="0,-9 9,0 0,9 -9,0"/>
    <circle cx="0" cy="0" r="2.5" fill="#0c0823"/>
  </g>
  <g transform="translate(556 44)" fill="#f4d35e">
    <polygon points="0,-9 9,0 0,9 -9,0"/>
    <circle cx="0" cy="0" r="2.5" fill="#0c0823"/>
  </g>
  <g transform="translate(44 856)" fill="#f4d35e">
    <polygon points="0,-9 9,0 0,9 -9,0"/>
    <circle cx="0" cy="0" r="2.5" fill="#0c0823"/>
  </g>
  <g transform="translate(556 856)" fill="#f4d35e">
    <polygon points="0,-9 9,0 0,9 -9,0"/>
    <circle cx="0" cy="0" r="2.5" fill="#0c0823"/>
  </g>
</svg>