<svg xmlns="http://www.w3.org/2000/svg" viewBox="0 0 600 900" width="600" height="900">
  <defs>
    <radialGradient id="bg" cx="50%" cy="40%" r="78%">
      <stop offset="0%" stop-color="#241a52"/>
      <stop offset="100%" stop-color="#0c0823"/>
    </radialGradient>
    <radialGradient id="glow" cx="50%" cy="50%" r="50%">
      <stop offset="0%" stop-color="#ffd54a" stop-opacity="0.6"/>
      <stop offset="55%" stop-color="#ffd54a" stop-opacity="0.12"/>
      <stop offset="100%" stop-color="#ffd54a" stop-opacity="0"/>
    </radialGradient>
    <radialGradient id="vig" cx="50%" cy="46%" r="72%">
      <stop offset="62%" stop-color="#000" stop-opacity="0"/>
      <stop offset="100%" stop-color="#000" stop-opacity="0.55"/>
    </radialGradient>
  </defs>

  <rect width="600" height="900" fill="url(#bg)"/>
  <g><circle cx="227.9" cy="853.1" r="1.6" fill="#fff" opacity="0.72"/><circle cx="63.5" cy="590.0" r="0.5" fill="#fff" opacity="0.64"/><circle cx="388.9" cy="856.6" r="1.2" fill="#fff" opacity="0.33"/><circle cx="557.9" cy="869.9" r="1.3" fill="#fff" opacity="0.25"/><circle cx="500.5" cy="397.7" r="0.8" fill="#fff" opacity="0.43"/><circle cx="567.4" cy="815.6" r="1.9" fill="#fff" opacity="0.63"/><circle cx="524.5" cy="317.3" r="1.2" fill="#fff" opacity="0.48"/><circle cx="544.0" cy="532.2" r="1.9" fill="#fff" opacity="0.77"/><circle cx="457.6" cy="250.1" r="0.5" fill="#fff" opacity="0.43"/><circle cx="67.4" cy="353.6" r="1.4" fill="#fff" opacity="0.80"/><circle cx="393.6" cy="616.4" r="0.7" fill="#fff" opacity="0.86"/><circle cx="444.4" cy="229.8" r="1.2" fill="#fff" opacity="0.33"/><circle cx="546.0" cy="248.0" r="1.9" fill="#fff" opacity="0.66"/><circle cx="256.8" cy="626.6" r="1.2" fill="#fff" opacity="0.21"/><circle cx="474.6" cy="206.6" r="1.2" fill="#fff" opacity="0.39"/><circle cx="453.0" cy="591.2" r="0.5" fill="#fff" opacity="0.53"/><circle cx="211.6" cy="706.4" r="2.2" fill="#fff" opacity="0.35"/><circle cx="53.6" cy="841.8" r="1.2" fill="#fff" opacity="0.73"/><circle cx="230.3" cy="592.4" r="2.0" fill="#fff" opacity="0.49"/><circle cx="356.0" cy="183.3" r="0.6" fill="#fff" opacity="0.41"/><circle cx="443.2" cy="571.4" r="0.7" fill="#fff" opacity="0.28"/><circle cx="537.2" cy="566.0" r="2.0" fill="#fff" opacity="0.42"/><circle cx="302.3" cy="823.8" r="1.2" fill="#fff" opacity="0.65"/><circle cx="374.8" cy="95.7" r="1.4" fill="#fff" opacity="0.62"/><circle cx="443.4" cy="630.4" r="0.5" fill="#fff" opacity="0.68"/><circle cx="233.6" cy="653.7" r="2.0" fill="#fff" opacity="0.74"/><circle cx="449.0" cy="60.9" r="1.8" fill="#fff" opacity="0.63"/><circle cx="114.8" cy="96.7" r="1.7" fill="#fff" opacity="0.23"/><circle cx="562.0" cy="278.7" r="1.4" fill="#fff" opacity="0.29"/><circle cx="116.5" cy="88.0" r="1.4" fill="#fff" opacity="0.62"/><circle cx="134.3" cy="613.4" r="2.1" fill="#fff" opacity="0.59"/><circle cx="533.5" cy="65.7" r="0.6" fill="#fff" opacity="0.27"/><circle cx="175.7" cy="173.7" r="1.8" fill="#fff" opacity="0.43"/><circle cx="523.0" cy="263.9" r="2.0" fill="#fff" opacity="0.46"/><circle cx="54.7" cy="523.5" r="0.4" fill="#fff" opacity="0.36"/><circle cx="359.0" cy="833.3" r="1.9" fill="#fff" opacity="0.57"/><circle cx="60.3" cy="275.1" r="0.5" fill="#fff" opacity="0.48"/><circle cx="367.7" cy="222.8" r="1.7" fill="#fff" opacity="0.89"/><circle cx="550.2" cy="370.8" r="1.8" fill="#fff" opacity="0.59"/><circle cx="286.3" cy="172.6" r="2.2" fill="#fff" opacity="0.22"/><circle cx="275.1" cy="573.6" r="1.4" fill="#fff" opacity="0.55"/><circle cx="277.3" cy="76.4" r="0.8" fill="#fff" opacity="0.56"/><circle cx="318.4" cy="640.5" r="1.4" fill="#fff" opacity="0.69"/><circle cx="209.7" cy="54.5" r="0.8" fill="#fff" opacity="0.75"/><circle cx="34.5" cy="805.8" r="0.7" fill="#fff" opacity="0.39"/><circle cx="141.1" cy="184.3" r="2.1" fill="#fff" opacity="0.28"/><circle cx="99.5" cy="145.3" r="2.2" fill="#fff" opacity="0.35"/><circle cx="85.5" cy="437.5" r="0.8" fill="#fff" opacity="0.35"/><circle cx="254.5" cy="731.8" r="1.5" fill="#fff" opacity="0.23"/><circle cx="192.9" cy="574.8" r="0.8" fill="#fff" opacity="0.81"/><circle cx="426.5" cy="760.1" r="0.6" fill="#fff" opacity="0.43"/><circle cx="343.3" cy="787.1" r="1.7" fill="#fff" opacity="0.39"/><circle cx="382.6" cy="586.0" r="1.8" fill="#fff" opacity="0.63"/><circle cx="358.6" cy="166.7" r="2.1" fill="#fff" opacity="0.69"/></g>
  <g opacity="0.16"><path d="M340 401 L860 392 L340 383 Z" fill="#ffe9a8"/><path d="M336.30766164564005 411.0460942407025 L840.9184627218782 536.9386652574117 L340.96640445748545 393.65942936749923 Z" fill="#ffe9a8"/><path d="M330.1410161513775 419.79422863405995 L784.9742261192857 672 L339.1410161513775 404.20577136594005 Z" fill="#ffe9a8"/><path d="M321.920310216783 426.6482322781408 L695.9797974644666 787.9797974644666 L334.6482322781408 413.920310216783 Z" fill="#ffe9a8"/><path d="M312.20577136594005 431.1410161513775 L580 876.9742261192856 L327.79422863405995 422.1410161513775 Z" fill="#ffe9a8"/><path d="M301.65942936749923 432.96640445748545 L444.9386652574116 932.9184627218782 L319.0460942407025 428.30766164564005 Z" fill="#ffe9a8"/><path d="M291 432 L300.00000000000006 952 L309 432 Z" fill="#ffe9a8"/><path d="M280.9539057592975 428.30766164564005 L155.06133474258846 932.9184627218782 L298.34057063250077 432.96640445748545 Z" fill="#ffe9a8"/><path d="M272.20577136594005 422.1410161513775 L20.000000000000114 876.9742261192857 L287.79422863405995 431.1410161513775 Z" fill="#ffe9a8"/><path d="M265.3517677218592 413.920310216783 L-95.97979746446657 787.9797974644666 L278.079689783217 426.6482322781408 Z" fill="#ffe9a8"/><path d="M260.8589838486225 404.20577136594005 L-184.97422611928567 672 L269.8589838486225 419.79422863405995 Z" fill="#ffe9a8"/><path d="M259.03359554251455 393.65942936749923 L-240.9184627218782 536.9386652574118 L263.69233835435995 411.0460942407025 Z" fill="#ffe9a8"/><path d="M260 383 L-260 392.00000000000006 L260 401 Z" fill="#ffe9a8"/><path d="M263.69233835435995 372.9539057592975 L-240.9184627218782 247.06133474258834 L259.03359554251455 390.34057063250077 Z" fill="#ffe9a8"/><path d="M269.8589838486224 364.20577136594005 L-184.97422611928573 112.00000000000017 L260.8589838486224 379.79422863405995 Z" fill="#ffe9a8"/><path d="M278.079689783217 357.3517677218592 L-95.97979746446686 -3.979797464466401 L265.3517677218592 370.079689783217 Z" fill="#ffe9a8"/><path d="M287.79422863405995 352.8589838486225 L19.999999999999773 -92.97422611928556 L272.20577136594005 361.8589838486225 Z" fill="#ffe9a8"/><path d="M298.34057063250077 351.03359554251455 L155.06133474258846 -148.9184627218782 L280.9539057592975 355.69233835435995 Z" fill="#ffe9a8"/><path d="M309 352 L299.9999999999999 -168 L291 352 Z" fill="#ffe9a8"/><path d="M319.0460942407024 355.69233835435995 L444.93866525741134 -148.9184627218783 L301.6594293674992 351.03359554251455 Z" fill="#ffe9a8"/><path d="M327.79422863405995 361.8589838486225 L580 -92.97422611928562 L312.20577136594005 352.8589838486225 Z" fill="#ffe9a8"/><path d="M334.6482322781408 370.079689783217 L695.9797974644665 -3.979797464466685 L321.920310216783 357.3517677218592 Z" fill="#ffe9a8"/><path d="M339.1410161513775 379.79422863405995 L784.9742261192855 111.99999999999977 L330.1410161513775 364.20577136594005 Z" fill="#ffe9a8"/><path d="M340.96640445748545 390.34057063250077 L840.9184627218781 247.06133474258792 L336.30766164564005 372.9539057592975 Z" fill="#ffe9a8"/></g>
  <circle cx="300" cy="392" r="230" fill="url(#glow)"/>
  <g opacity="0.95">
    <circle cx="300" cy="392" r="176" fill="#140f33"/>
    <circle cx="300" cy="392" r="176" fill="#ffd54a" opacity="0.12"/>
    <circle cx="300" cy="392" r="176" fill="none" stroke="#f4d35e" stroke-width="2" opacity="0.5"/>
    <circle cx="300" cy="392" r="188" fill="none" stroke="#f4d35e" stroke-width="1" opacity="0.3"/>
  </g>
  
    <path d="M0 760 Q 300 700 600 760 L600 900 L0 900 Z" fill="#0a0716"/>
    <path d="M0 760 Q 300 700 600 760" fill="none" stroke="#f4d35e" stroke-width="2" opacity="0.45"/>
    <path d="M0 812 Q 300 768 600 812 L600 900 L0 900 Z" fill="#000" opacity="0.35"/>
    <g fill="#ffd54a" opacity="0.3">
      <circle cx="120" cy="792" r="3"/><circle cx="300" cy="772" r="3"/><circle cx="470" cy="792" r="3"/>
    </g>

  <!-- 象徴のイラスト（大きめに） -->
  <g transform="translate(300 392) scale(1.42) translate(-300 -392)">
    
    <path d="M232 446 L232 372 L272 410 L300 350 L328 410 L368 372 L368 446 Z"
      fill="#ffd54a" opacity="0.35" stroke="#f4d35e" stroke-width="3.5" stroke-linejoin="round"/>
    <rect x="232" y="446" width="136" height="20" rx="5" fill="#f4d35e"/>
    <circle cx="232" cy="368" r="9" fill="#f4d35e"/>
    <circle cx="368" cy="368" r="9" fill="#f4d35e"/>
    <circle cx="300" cy="344" r="10" fill="#fff"/>
    <circle cx="272" cy="426" r="6" fill="#fff" opacity="0.9"/>
    <circle cx="328" cy="426" r="6" fill="#fff" opacity="0.9"/>
  </g>

  <rect width="600" height="900" fill="url(#vig)"/>
</svg>