<svg xmlns="http://www.w3.org/2000/svg" viewBox="0 0 600 900" width="600" height="900">
  <defs>
    <radialGradient id="bg" cx="50%" cy="40%" r="78%">
      <stop offset="0%" stop-color="#3a0d18"/>
      <stop offset="100%" stop-color="#08060b"/>
    </radialGradient>
    <radialGradient id="glow" cx="50%" cy="50%" r="50%">
      <stop offset="0%" stop-color="#8aa0bd" stop-opacity="0.6"/>
      <stop offset="55%" stop-color="#8aa0bd" stop-opacity="0.12"/>
      <stop offset="100%" stop-color="#8aa0bd" stop-opacity="0"/>
    </radialGradient>
    <radialGradient id="vig" cx="50%" cy="46%" r="72%">
      <stop offset="62%" stop-color="#000" stop-opacity="0"/>
      <stop offset="100%" stop-color="#000" stop-opacity="0.55"/>
    </radialGradient>
  </defs>

  <rect width="600" height="900" fill="url(#bg)"/>
  <g><circle cx="444.8" cy="801.7" r="2.1" fill="#fff" opacity="0.47"/><circle cx="87.0" cy="680.3" r="1.1" fill="#fff" opacity="0.54"/><circle cx="210.4" cy="559.0" r="1.6" fill="#fff" opacity="0.67"/><circle cx="519.3" cy="839.3" r="1.4" fill="#fff" opacity="0.64"/><circle cx="372.5" cy="136.9" r="1.2" fill="#fff" opacity="0.67"/><circle cx="552.0" cy="572.6" r="0.5" fill="#fff" opacity="0.75"/><circle cx="281.3" cy="740.7" r="1.7" fill="#fff" opacity="0.43"/><circle cx="333.4" cy="754.7" r="0.6" fill="#fff" opacity="0.53"/><circle cx="181.7" cy="57.5" r="1.7" fill="#fff" opacity="0.52"/><circle cx="229.0" cy="579.8" r="0.4" fill="#fff" opacity="0.90"/><circle cx="470.5" cy="235.8" r="0.7" fill="#fff" opacity="0.80"/><circle cx="418.5" cy="690.9" r="1.5" fill="#fff" opacity="0.25"/><circle cx="46.3" cy="247.3" r="0.8" fill="#fff" opacity="0.70"/><circle cx="482.6" cy="274.7" r="1.3" fill="#fff" opacity="0.35"/><circle cx="366.3" cy="110.0" r="0.5" fill="#fff" opacity="0.31"/><circle cx="330.7" cy="755.1" r="1.7" fill="#fff" opacity="0.30"/><circle cx="76.5" cy="349.6" r="1.4" fill="#fff" opacity="0.40"/><circle cx="292.4" cy="599.7" r="1.4" fill="#fff" opacity="0.81"/><circle cx="36.0" cy="576.3" r="0.5" fill="#fff" opacity="0.70"/><circle cx="182.4" cy="550.8" r="1.4" fill="#fff" opacity="0.71"/><circle cx="113.0" cy="473.6" r="1.0" fill="#fff" opacity="0.82"/><circle cx="216.9" cy="549.9" r="2.0" fill="#fff" opacity="0.76"/><circle cx="130.7" cy="829.0" r="0.5" fill="#fff" opacity="0.84"/><circle cx="428.3" cy="608.2" r="1.2" fill="#fff" opacity="0.81"/><circle cx="469.9" cy="247.8" r="1.9" fill="#fff" opacity="0.65"/><circle cx="420.2" cy="652.3" r="0.9" fill="#fff" opacity="0.48"/><circle cx="112.0" cy="40.1" r="1.9" fill="#fff" opacity="0.23"/><circle cx="428.6" cy="568.4" r="1.9" fill="#fff" opacity="0.20"/><circle cx="535.2" cy="476.7" r="1.5" fill="#fff" opacity="0.52"/><circle cx="95.1" cy="198.0" r="1.3" fill="#fff" opacity="0.70"/><circle cx="280.8" cy="696.8" r="2.1" fill="#fff" opacity="0.30"/><circle cx="399.6" cy="71.9" r="1.2" fill="#fff" opacity="0.72"/><circle cx="297.9" cy="820.6" r="2.0" fill="#fff" opacity="0.53"/><circle cx="154.0" cy="201.9" r="1.8" fill="#fff" opacity="0.42"/><circle cx="49.0" cy="394.6" r="1.2" fill="#fff" opacity="0.33"/><circle cx="309.8" cy="743.6" r="1.2" fill="#fff" opacity="0.77"/><circle cx="496.9" cy="368.7" r="0.7" fill="#fff" opacity="0.75"/><circle cx="515.9" cy="159.9" r="2.1" fill="#fff" opacity="0.65"/><circle cx="425.8" cy="664.5" r="2.0" fill="#fff" opacity="0.81"/><circle cx="139.3" cy="315.8" r="1.6" fill="#fff" opacity="0.72"/><circle cx="188.8" cy="615.9" r="1.5" fill="#fff" opacity="0.59"/><circle cx="393.5" cy="99.3" r="1.5" fill="#fff" opacity="0.89"/><circle cx="43.1" cy="313.6" r="0.5" fill="#fff" opacity="0.55"/><circle cx="542.0" cy="786.9" r="1.4" fill="#fff" opacity="0.55"/><circle cx="492.1" cy="715.6" r="1.8" fill="#fff" opacity="0.86"/><circle cx="151.2" cy="551.1" r="1.0" fill="#fff" opacity="0.88"/><circle cx="409.6" cy="114.4" r="1.6" fill="#fff" opacity="0.51"/><circle cx="505.6" cy="855.8" r="0.5" fill="#fff" opacity="0.71"/><circle cx="547.3" cy="319.7" r="2.1" fill="#fff" opacity="0.21"/><circle cx="313.0" cy="203.3" r="1.8" fill="#fff" opacity="0.34"/><circle cx="109.5" cy="305.4" r="0.6" fill="#fff" opacity="0.47"/><circle cx="392.4" cy="40.2" r="0.7" fill="#fff" opacity="0.21"/><circle cx="429.1" cy="249.7" r="1.1" fill="#fff" opacity="0.74"/><circle cx="524.8" cy="378.6" r="1.4" fill="#fff" opacity="0.66"/></g>
  <g opacity="0.16"><path d="M360 406 L820 392 L360 378 Z" fill="#ff7a5c"/><path d="M351.5932752405951 425.67690529054283 L788.6401628086724 569.8504745293477 L361.16983925371386 399.36551190853737 Z" fill="#ff7a5c"/><path d="M336.96364005152714 441.29187878485806 L698.3431104218686 726.2495570370004 L354.96169312275026 419.8426343775266 Z" fill="#ff7a5c"/><path d="M317.87564434701784 450.9615242270663 L560 842.333209967908 L342.12435565298216 436.9615242270663 Z" fill="#ff7a5c"/><path d="M296.6315821178449 453.5195396680695 L390.2970523868038 904.1000315663482 L324.2061992021868 448.6573906933955 Z" fill="#ff7a5c"/><path d="M275.7938007978133 448.6573906933955 L209.70294761319624 904.1000315663482 L303.36841788215514 453.5195396680695 Z" fill="#ff7a5c"/><path d="M257.87564434701784 436.9615242270663 L40.000000000000114 842.3332099679081 L282.12435565298216 450.9615242270663 Z" fill="#ff7a5c"/><path d="M245.03830687724977 419.8426343775267 L-98.34311042186852 726.2495570370005 L263.03635994847286 441.2918787848581 Z" fill="#ff7a5c"/><path d="M238.83016074628614 399.3655119085374 L-188.6401628086723 569.8504745293478 L248.40672475940488 425.6769052905429 Z" fill="#ff7a5c"/><path d="M240 378 L-220 392.00000000000006 L240 406 Z" fill="#ff7a5c"/><path d="M248.40672475940485 358.32309470945717 L-188.64016280867236 214.1495254706523 L238.83016074628617 384.63448809146263 Z" fill="#ff7a5c"/><path d="M263.03635994847286 342.70812121514194 L-98.34311042186874 57.750442962999784 L245.03830687724977 364.1573656224734 Z" fill="#ff7a5c"/><path d="M282.12435565298216 333.0384757729337 L39.99999999999977 -58.33320996790803 L257.87564434701784 347.0384757729337 Z" fill="#ff7a5c"/><path d="M303.36841788215514 330.4804603319305 L209.70294761319622 -120.1000315663482 L275.7938007978133 335.3426093066045 Z" fill="#ff7a5c"/><path d="M324.2061992021867 335.3426093066045 L390.29705238680356 -120.1000315663482 L296.63158211784486 330.4804603319305 Z" fill="#ff7a5c"/><path d="M342.1243556529821 347.0384757729337 L559.9999999999997 -58.33320996790832 L317.8756443470178 333.0384757729337 Z" fill="#ff7a5c"/><path d="M354.9616931227502 364.1573656224733 L698.3431104218685 57.75044296299944 L336.9636400515271 342.7081212151419 Z" fill="#ff7a5c"/><path d="M361.16983925371386 384.63448809146263 L788.6401628086724 214.14952547065232 L351.5932752405951 358.32309470945717 Z" fill="#ff7a5c"/></g>
  <circle cx="300" cy="392" r="230" fill="url(#glow)"/>
  <g opacity="0.9">
      <circle cx="300" cy="392" r="172" fill="#1a0710"/>
      <circle cx="300" cy="392" r="172" fill="#8aa0bd" opacity="0.16"/>
      <circle cx="300" cy="392" r="172" fill="none" stroke="#ff3b4e" stroke-width="2" opacity="0.55"/>
    </g>
  
    <path d="M0 760 Q 300 700 600 760 L600 900 L0 900 Z" fill="#0a0716"/>
    <path d="M0 760 Q 300 700 600 760" fill="none" stroke="#ff3b4e" stroke-width="2" opacity="0.45"/>
    <path d="M0 812 Q 300 768 600 812 L600 900 L0 900 Z" fill="#000" opacity="0.35"/>
    <g fill="#8aa0bd" opacity="0.3">
      <circle cx="120" cy="792" r="3"/><circle cx="300" cy="772" r="3"/><circle cx="470" cy="792" r="3"/>
    </g>

  <!-- 象徴のイラスト（大きめに） -->
  <g transform="translate(300 392) scale(1.42) translate(-300 -392)">
    
    <circle cx="300" cy="386" r="96" fill="none" stroke="#ff3b4e" stroke-width="2" opacity="0.5"/>
    <path d="M300 470
      L246 410 L232 332 L276 360 L300 348 L324 360 L368 332 L354 410 Z"
      fill="#11131c" stroke="#8aa0bd" stroke-width="3"/>
    <polygon points="246,410 232,332 276,360" fill="#8aa0bd" opacity="0.5"/>
    <polygon points="354,410 368,332 324,360" fill="#8aa0bd" opacity="0.5"/>
    <path d="M276 392 l14 8 l10 -6 l10 6 l14 -8" fill="none" stroke="#ff3b4e" stroke-width="3" stroke-linecap="round"/>
    <circle cx="283" cy="384" r="6" fill="#ff3b4e"/>
    <circle cx="317" cy="384" r="6" fill="#ff3b4e"/>
    <polygon points="300,430 292,418 308,418" fill="#ff3b4e"/>
  </g>

  <rect width="600" height="900" fill="url(#vig)"/>
</svg>