<svg xmlns="http://www.w3.org/2000/svg" viewBox="0 0 600 900" width="600" height="900" font-family="'Noto Sans JP','Hiragino Sans','Hiragino Kaku Gothic ProN','Yu Gothic',Meiryo,IPAGothic,sans-serif">
  <defs>
    <radialGradient id="bg" cx="50%" cy="42%" r="75%">
      <stop offset="0%" stop-color="#241a52"/>
      <stop offset="100%" stop-color="#0c0823"/>
    </radialGradient>
    <radialGradient id="glow" cx="50%" cy="50%" r="50%">
      <stop offset="0%" stop-color="#7da2ff" stop-opacity="0.55"/>
      <stop offset="100%" stop-color="#7da2ff" stop-opacity="0"/>
    </radialGradient>
  </defs>

  <rect width="600" height="900" rx="26" fill="url(#bg)"/>
  <g><circle cx="217.8" cy="733.4" r="1.2" fill="#fff" opacity="0.53"/><circle cx="485.6" cy="591.0" r="1.8" fill="#fff" opacity="0.42"/><circle cx="422.1" cy="672.4" r="0.8" fill="#fff" opacity="0.48"/><circle cx="239.0" cy="169.5" r="1.4" fill="#fff" opacity="0.85"/><circle cx="271.7" cy="810.4" r="1.2" fill="#fff" opacity="0.61"/><circle cx="112.5" cy="312.3" r="1.7" fill="#fff" opacity="0.80"/><circle cx="97.4" cy="864.0" r="0.7" fill="#fff" opacity="0.45"/><circle cx="117.9" cy="473.0" r="1.2" fill="#fff" opacity="0.48"/><circle cx="197.3" cy="679.6" r="1.6" fill="#fff" opacity="0.76"/><circle cx="456.6" cy="813.3" r="2.1" fill="#fff" opacity="0.44"/><circle cx="250.8" cy="745.2" r="1.5" fill="#fff" opacity="0.47"/><circle cx="174.3" cy="541.4" r="0.4" fill="#fff" opacity="0.58"/><circle cx="275.9" cy="690.9" r="2.0" fill="#fff" opacity="0.51"/><circle cx="184.5" cy="90.3" r="0.6" fill="#fff" opacity="0.53"/><circle cx="439.3" cy="213.2" r="1.3" fill="#fff" opacity="0.55"/><circle cx="220.9" cy="111.9" r="1.2" fill="#fff" opacity="0.57"/><circle cx="231.3" cy="127.6" r="1.0" fill="#fff" opacity="0.54"/><circle cx="522.0" cy="640.8" r="2.2" fill="#fff" opacity="0.52"/><circle cx="169.8" cy="540.7" r="0.9" fill="#fff" opacity="0.58"/><circle cx="340.5" cy="659.5" r="1.6" fill="#fff" opacity="0.54"/><circle cx="51.4" cy="318.4" r="1.1" fill="#fff" opacity="0.78"/><circle cx="341.4" cy="628.3" r="1.3" fill="#fff" opacity="0.83"/><circle cx="130.7" cy="474.4" r="1.8" fill="#fff" opacity="0.63"/><circle cx="513.1" cy="859.8" r="0.7" fill="#fff" opacity="0.57"/><circle cx="283.1" cy="661.4" r="1.6" fill="#fff" opacity="0.46"/><circle cx="488.6" cy="494.9" r="1.5" fill="#fff" opacity="0.47"/><circle cx="508.9" cy="498.1" r="1.8" fill="#fff" opacity="0.81"/><circle cx="548.6" cy="400.2" r="1.6" fill="#fff" opacity="0.65"/><circle cx="410.6" cy="706.3" r="1.8" fill="#fff" opacity="0.73"/><circle cx="513.4" cy="31.4" r="0.9" fill="#fff" opacity="0.65"/><circle cx="558.3" cy="852.8" r="1.3" fill="#fff" opacity="0.34"/><circle cx="319.9" cy="807.8" r="1.1" fill="#fff" opacity="0.28"/><circle cx="266.2" cy="571.8" r="1.4" fill="#fff" opacity="0.38"/><circle cx="110.9" cy="776.0" r="1.1" fill="#fff" opacity="0.22"/><circle cx="269.5" cy="666.6" r="2.1" fill="#fff" opacity="0.85"/><circle cx="377.5" cy="171.9" r="0.6" fill="#fff" opacity="0.70"/><circle cx="402.4" cy="200.9" r="1.5" fill="#fff" opacity="0.67"/><circle cx="92.5" cy="262.4" r="1.2" fill="#fff" opacity="0.78"/><circle cx="281.3" cy="103.9" r="0.7" fill="#fff" opacity="0.48"/><circle cx="56.9" cy="436.9" r="0.8" fill="#fff" opacity="0.57"/><circle cx="183.0" cy="659.2" r="1.0" fill="#fff" opacity="0.26"/><circle cx="403.8" cy="718.6" r="1.4" fill="#fff" opacity="0.37"/><circle cx="530.1" cy="386.1" r="0.6" fill="#fff" opacity="0.29"/><circle cx="259.5" cy="685.0" r="1.0" fill="#fff" opacity="0.64"/><circle cx="455.2" cy="48.0" r="1.3" fill="#fff" opacity="0.52"/><circle cx="270.8" cy="173.6" r="0.9" fill="#fff" opacity="0.57"/><circle cx="520.0" cy="53.9" r="1.0" fill="#fff" opacity="0.36"/><circle cx="452.3" cy="114.3" r="1.7" fill="#fff" opacity="0.89"/><circle cx="399.5" cy="688.3" r="1.4" fill="#fff" opacity="0.73"/><circle cx="556.1" cy="529.3" r="0.6" fill="#fff" opacity="0.71"/><circle cx="486.3" cy="679.6" r="0.4" fill="#fff" opacity="0.45"/><circle cx="144.8" cy="53.4" r="2.1" fill="#fff" opacity="0.21"/></g>
  <g opacity="0.16"><path d="M340 401 L860 392 L340 383 Z" fill="#ffe9a8"/><path d="M336.30766164564005 411.0460942407025 L840.9184627218782 536.9386652574117 L340.96640445748545 393.65942936749923 Z" fill="#ffe9a8"/><path d="M330.1410161513775 419.79422863405995 L784.9742261192857 672 L339.1410161513775 404.20577136594005 Z" fill="#ffe9a8"/><path d="M321.920310216783 426.6482322781408 L695.9797974644666 787.9797974644666 L334.6482322781408 413.920310216783 Z" fill="#ffe9a8"/><path d="M312.20577136594005 431.1410161513775 L580 876.9742261192856 L327.79422863405995 422.1410161513775 Z" fill="#ffe9a8"/><path d="M301.65942936749923 432.96640445748545 L444.9386652574116 932.9184627218782 L319.0460942407025 428.30766164564005 Z" fill="#ffe9a8"/><path d="M291 432 L300.00000000000006 952 L309 432 Z" fill="#ffe9a8"/><path d="M280.9539057592975 428.30766164564005 L155.06133474258846 932.9184627218782 L298.34057063250077 432.96640445748545 Z" fill="#ffe9a8"/><path d="M272.20577136594005 422.1410161513775 L20.000000000000114 876.9742261192857 L287.79422863405995 431.1410161513775 Z" fill="#ffe9a8"/><path d="M265.3517677218592 413.920310216783 L-95.97979746446657 787.9797974644666 L278.079689783217 426.6482322781408 Z" fill="#ffe9a8"/><path d="M260.8589838486225 404.20577136594005 L-184.97422611928567 672 L269.8589838486225 419.79422863405995 Z" fill="#ffe9a8"/><path d="M259.03359554251455 393.65942936749923 L-240.9184627218782 536.9386652574118 L263.69233835435995 411.0460942407025 Z" fill="#ffe9a8"/><path d="M260 383 L-260 392.00000000000006 L260 401 Z" fill="#ffe9a8"/><path d="M263.69233835435995 372.9539057592975 L-240.9184627218782 247.06133474258834 L259.03359554251455 390.34057063250077 Z" fill="#ffe9a8"/><path d="M269.8589838486224 364.20577136594005 L-184.97422611928573 112.00000000000017 L260.8589838486224 379.79422863405995 Z" fill="#ffe9a8"/><path d="M278.079689783217 357.3517677218592 L-95.97979746446686 -3.979797464466401 L265.3517677218592 370.079689783217 Z" fill="#ffe9a8"/><path d="M287.79422863405995 352.8589838486225 L19.999999999999773 -92.97422611928556 L272.20577136594005 361.8589838486225 Z" fill="#ffe9a8"/><path d="M298.34057063250077 351.03359554251455 L155.06133474258846 -148.9184627218782 L280.9539057592975 355.69233835435995 Z" fill="#ffe9a8"/><path d="M309 352 L299.9999999999999 -168 L291 352 Z" fill="#ffe9a8"/><path d="M319.0460942407024 355.69233835435995 L444.93866525741134 -148.9184627218783 L301.6594293674992 351.03359554251455 Z" fill="#ffe9a8"/><path d="M327.79422863405995 361.8589838486225 L580 -92.97422611928562 L312.20577136594005 352.8589838486225 Z" fill="#ffe9a8"/><path d="M334.6482322781408 370.079689783217 L695.9797974644665 -3.979797464466685 L321.920310216783 357.3517677218592 Z" fill="#ffe9a8"/><path d="M339.1410161513775 379.79422863405995 L784.9742261192855 111.99999999999977 L330.1410161513775 364.20577136594005 Z" fill="#ffe9a8"/><path d="M340.96640445748545 390.34057063250077 L840.9184627218781 247.06133474258792 L336.30766164564005 372.9539057592975 Z" fill="#ffe9a8"/></g>
  <circle cx="300" cy="392" r="200" fill="url(#glow)"/>

  <!-- 中央メダリオン -->
  <circle cx="300" cy="392" r="150" fill="#0b0820" opacity="0.55"/>
  <circle cx="300" cy="392" r="158" fill="none" stroke="#f4d35e" stroke-width="1.5" opacity="0.55"/><circle cx="300" cy="392" r="150" fill="none" stroke="#7da2ff" stroke-width="2.5" opacity="0.9"/><circle cx="458.0" cy="392.0" r="3.4" fill="#f4d35e"/><circle cx="446.0" cy="452.5" r="3.4" fill="#f4d35e"/><circle cx="411.7" cy="503.7" r="3.4" fill="#f4d35e"/><circle cx="360.5" cy="538.0" r="3.4" fill="#f4d35e"/><circle cx="300.0" cy="550.0" r="3.4" fill="#f4d35e"/><circle cx="239.5" cy="538.0" r="3.4" fill="#f4d35e"/><circle cx="188.3" cy="503.7" r="3.4" fill="#f4d35e"/><circle cx="154.0" cy="452.5" r="3.4" fill="#f4d35e"/><circle cx="142.0" cy="392.0" r="3.4" fill="#f4d35e"/><circle cx="154.0" cy="331.5" r="3.4" fill="#f4d35e"/><circle cx="188.3" cy="280.3" r="3.4" fill="#f4d35e"/><circle cx="239.5" cy="246.0" r="3.4" fill="#f4d35e"/><circle cx="300.0" cy="234.0" r="3.4" fill="#f4d35e"/><circle cx="360.5" cy="246.0" r="3.4" fill="#f4d35e"/><circle cx="411.7" cy="280.3" r="3.4" fill="#f4d35e"/><circle cx="446.0" cy="331.5" r="3.4" fill="#f4d35e"/>
  
    <ellipse cx="300" cy="300" rx="46" ry="14" fill="none" stroke="#f4d35e" stroke-width="3" opacity="0.85"/>
    <path d="M300 350 C 282 322, 244 326, 244 360 C 244 392, 286 414, 300 432 C 314 414, 356 392, 356 360 C 356 326, 318 322, 300 350 Z" fill="#7da2ff" opacity="0.92"/>
    <path d="M300 350 C 282 322, 244 326, 244 360 C 244 392, 286 414, 300 432 C 314 414, 356 392, 356 360 C 356 326, 318 322, 300 350 Z" fill="none" stroke="#f4d35e" stroke-width="2"/>
    <g stroke="#fff" stroke-width="9" stroke-linecap="round" opacity="0.95">
      <line x1="276" y1="372" x2="324" y2="372"/>
      <line x1="300" y1="354" x2="300" y2="392"/>
    </g>

  <!-- ローマ数字の銘板 -->
  <g>
    <rect x="240" y="74" width="120" height="46" rx="10" fill="#0b0820" opacity="0.6" stroke="#f4d35e" stroke-width="1.5"/>
    <text x="300" y="106" text-anchor="middle" font-size="26" letter-spacing="3" fill="#f4d35e" font-weight="700">I</text>
  </g>

  <!-- 下部バナー -->
  <g>
    <path d="M70 792 L530 792 L512 836 L530 880 L70 880 L88 836 Z" fill="#0b0820" opacity="0.72" stroke="#f4d35e" stroke-width="1.5"/>
    <text x="300" y="838" text-anchor="middle" font-size="40" font-weight="900" fill="#fff">自己犠牲タイプ</text>
    <text x="300" y="866" text-anchor="middle" font-size="15" letter-spacing="4" fill="#f4d35e" font-weight="700">THE MARTYR</text>
  </g>

  <!-- 装飾枠 -->
  <rect x="20" y="20" width="560" height="860" rx="18" fill="none" stroke="#f4d35e" stroke-width="3"/>
  <rect x="32" y="32" width="536" height="836" rx="12" fill="none" stroke="#f4d35e" stroke-width="1" opacity="0.5"/>
  <g transform="translate(44 44)" fill="#f4d35e">
    <polygon points="0,-9 9,0 0,9 -9,0"/>
    <circle cx="0" cy="0" r="2.5" fill="#0c0823"/>
  </g>
  <g transform="translate(556 44)" fill="#f4d35e">
    <polygon points="0,-9 9,0 0,9 -9,0"/>
    <circle cx="0" cy="0" r="2.5" fill="#0c0823"/>
  </g>
  <g transform="translate(44 856)" fill="#f4d35e">
    <polygon points="0,-9 9,0 0,9 -9,0"/>
    <circle cx="0" cy="0" r="2.5" fill="#0c0823"/>
  </g>
  <g transform="translate(556 856)" fill="#f4d35e">
    <polygon points="0,-9 9,0 0,9 -9,0"/>
    <circle cx="0" cy="0" r="2.5" fill="#0c0823"/>
  </g>
</svg>