<svg xmlns="http://www.w3.org/2000/svg" viewBox="0 0 600 900" width="600" height="900">
  <defs>
    <radialGradient id="bg" cx="50%" cy="40%" r="78%">
      <stop offset="0%" stop-color="#241a52"/>
      <stop offset="100%" stop-color="#0c0823"/>
    </radialGradient>
    <radialGradient id="glow" cx="50%" cy="50%" r="50%">
      <stop offset="0%" stop-color="#3fe0a0" stop-opacity="0.6"/>
      <stop offset="55%" stop-color="#3fe0a0" stop-opacity="0.12"/>
      <stop offset="100%" stop-color="#3fe0a0" stop-opacity="0"/>
    </radialGradient>
    <radialGradient id="vig" cx="50%" cy="46%" r="72%">
      <stop offset="62%" stop-color="#000" stop-opacity="0"/>
      <stop offset="100%" stop-color="#000" stop-opacity="0.55"/>
    </radialGradient>
  </defs>

  <rect width="600" height="900" fill="url(#bg)"/>
  <g><circle cx="110.1" cy="321.3" r="1.8" fill="#fff" opacity="0.54"/><circle cx="501.0" cy="659.8" r="1.1" fill="#fff" opacity="0.35"/><circle cx="199.7" cy="719.1" r="1.5" fill="#fff" opacity="0.42"/><circle cx="321.0" cy="125.6" r="1.2" fill="#fff" opacity="0.51"/><circle cx="65.0" cy="836.7" r="2.0" fill="#fff" opacity="0.49"/><circle cx="520.6" cy="81.7" r="0.8" fill="#fff" opacity="0.41"/><circle cx="391.4" cy="233.6" r="0.6" fill="#fff" opacity="0.47"/><circle cx="474.1" cy="276.6" r="2.2" fill="#fff" opacity="0.62"/><circle cx="357.6" cy="613.3" r="2.0" fill="#fff" opacity="0.53"/><circle cx="209.4" cy="753.1" r="1.1" fill="#fff" opacity="0.51"/><circle cx="69.8" cy="494.9" r="1.7" fill="#fff" opacity="0.75"/><circle cx="509.8" cy="168.0" r="1.8" fill="#fff" opacity="0.56"/><circle cx="344.7" cy="852.9" r="2.2" fill="#fff" opacity="0.81"/><circle cx="529.7" cy="33.8" r="2.2" fill="#fff" opacity="0.82"/><circle cx="399.4" cy="158.7" r="0.6" fill="#fff" opacity="0.89"/><circle cx="302.4" cy="90.6" r="0.4" fill="#fff" opacity="0.73"/><circle cx="104.6" cy="663.0" r="2.0" fill="#fff" opacity="0.32"/><circle cx="480.7" cy="395.0" r="1.5" fill="#fff" opacity="0.43"/><circle cx="358.0" cy="859.2" r="1.5" fill="#fff" opacity="0.42"/><circle cx="298.9" cy="688.5" r="1.5" fill="#fff" opacity="0.62"/><circle cx="340.4" cy="76.8" r="1.2" fill="#fff" opacity="0.73"/><circle cx="401.7" cy="113.2" r="2.1" fill="#fff" opacity="0.68"/><circle cx="106.3" cy="346.3" r="0.8" fill="#fff" opacity="0.71"/><circle cx="498.2" cy="798.5" r="1.6" fill="#fff" opacity="0.44"/><circle cx="509.4" cy="116.5" r="2.0" fill="#fff" opacity="0.54"/><circle cx="419.7" cy="743.8" r="1.7" fill="#fff" opacity="0.56"/><circle cx="117.7" cy="816.5" r="1.7" fill="#fff" opacity="0.38"/><circle cx="379.8" cy="706.0" r="0.8" fill="#fff" opacity="0.39"/><circle cx="479.2" cy="132.4" r="0.9" fill="#fff" opacity="0.78"/><circle cx="495.1" cy="234.7" r="0.9" fill="#fff" opacity="0.65"/><circle cx="298.6" cy="165.5" r="1.0" fill="#fff" opacity="0.55"/><circle cx="472.2" cy="313.7" r="0.9" fill="#fff" opacity="0.49"/><circle cx="301.4" cy="694.6" r="1.4" fill="#fff" opacity="0.84"/><circle cx="487.3" cy="80.2" r="1.7" fill="#fff" opacity="0.82"/><circle cx="271.5" cy="166.0" r="1.6" fill="#fff" opacity="0.49"/><circle cx="44.4" cy="816.0" r="0.6" fill="#fff" opacity="0.50"/><circle cx="59.3" cy="398.6" r="2.0" fill="#fff" opacity="0.28"/><circle cx="164.5" cy="626.5" r="0.7" fill="#fff" opacity="0.32"/><circle cx="239.2" cy="696.6" r="1.1" fill="#fff" opacity="0.30"/><circle cx="407.1" cy="851.7" r="2.0" fill="#fff" opacity="0.62"/><circle cx="362.1" cy="850.5" r="0.4" fill="#fff" opacity="0.41"/><circle cx="103.5" cy="298.4" r="1.4" fill="#fff" opacity="0.88"/><circle cx="336.0" cy="859.6" r="1.6" fill="#fff" opacity="0.72"/><circle cx="298.5" cy="568.1" r="1.5" fill="#fff" opacity="0.86"/><circle cx="41.7" cy="366.0" r="0.4" fill="#fff" opacity="0.75"/><circle cx="101.3" cy="219.8" r="0.7" fill="#fff" opacity="0.62"/><circle cx="345.9" cy="187.6" r="0.6" fill="#fff" opacity="0.23"/><circle cx="494.5" cy="149.4" r="2.1" fill="#fff" opacity="0.47"/><circle cx="415.0" cy="681.9" r="2.1" fill="#fff" opacity="0.87"/><circle cx="179.6" cy="602.0" r="2.2" fill="#fff" opacity="0.57"/><circle cx="120.6" cy="199.9" r="0.4" fill="#fff" opacity="0.72"/><circle cx="540.3" cy="663.2" r="1.8" fill="#fff" opacity="0.65"/><circle cx="381.2" cy="582.7" r="1.6" fill="#fff" opacity="0.26"/><circle cx="564.6" cy="73.3" r="1.1" fill="#fff" opacity="0.77"/><circle cx="552.4" cy="190.0" r="0.7" fill="#fff" opacity="0.87"/><circle cx="495.9" cy="191.6" r="2.0" fill="#fff" opacity="0.40"/><circle cx="46.3" cy="135.2" r="1.4" fill="#fff" opacity="0.50"/></g>
  <g opacity="0.16"><path d="M340 401 L860 392 L340 383 Z" fill="#ffe9a8"/><path d="M336.30766164564005 411.0460942407025 L840.9184627218782 536.9386652574117 L340.96640445748545 393.65942936749923 Z" fill="#ffe9a8"/><path d="M330.1410161513775 419.79422863405995 L784.9742261192857 672 L339.1410161513775 404.20577136594005 Z" fill="#ffe9a8"/><path d="M321.920310216783 426.6482322781408 L695.9797974644666 787.9797974644666 L334.6482322781408 413.920310216783 Z" fill="#ffe9a8"/><path d="M312.20577136594005 431.1410161513775 L580 876.9742261192856 L327.79422863405995 422.1410161513775 Z" fill="#ffe9a8"/><path d="M301.65942936749923 432.96640445748545 L444.9386652574116 932.9184627218782 L319.0460942407025 428.30766164564005 Z" fill="#ffe9a8"/><path d="M291 432 L300.00000000000006 952 L309 432 Z" fill="#ffe9a8"/><path d="M280.9539057592975 428.30766164564005 L155.06133474258846 932.9184627218782 L298.34057063250077 432.96640445748545 Z" fill="#ffe9a8"/><path d="M272.20577136594005 422.1410161513775 L20.000000000000114 876.9742261192857 L287.79422863405995 431.1410161513775 Z" fill="#ffe9a8"/><path d="M265.3517677218592 413.920310216783 L-95.97979746446657 787.9797974644666 L278.079689783217 426.6482322781408 Z" fill="#ffe9a8"/><path d="M260.8589838486225 404.20577136594005 L-184.97422611928567 672 L269.8589838486225 419.79422863405995 Z" fill="#ffe9a8"/><path d="M259.03359554251455 393.65942936749923 L-240.9184627218782 536.9386652574118 L263.69233835435995 411.0460942407025 Z" fill="#ffe9a8"/><path d="M260 383 L-260 392.00000000000006 L260 401 Z" fill="#ffe9a8"/><path d="M263.69233835435995 372.9539057592975 L-240.9184627218782 247.06133474258834 L259.03359554251455 390.34057063250077 Z" fill="#ffe9a8"/><path d="M269.8589838486224 364.20577136594005 L-184.97422611928573 112.00000000000017 L260.8589838486224 379.79422863405995 Z" fill="#ffe9a8"/><path d="M278.079689783217 357.3517677218592 L-95.97979746446686 -3.979797464466401 L265.3517677218592 370.079689783217 Z" fill="#ffe9a8"/><path d="M287.79422863405995 352.8589838486225 L19.999999999999773 -92.97422611928556 L272.20577136594005 361.8589838486225 Z" fill="#ffe9a8"/><path d="M298.34057063250077 351.03359554251455 L155.06133474258846 -148.9184627218782 L280.9539057592975 355.69233835435995 Z" fill="#ffe9a8"/><path d="M309 352 L299.9999999999999 -168 L291 352 Z" fill="#ffe9a8"/><path d="M319.0460942407024 355.69233835435995 L444.93866525741134 -148.9184627218783 L301.6594293674992 351.03359554251455 Z" fill="#ffe9a8"/><path d="M327.79422863405995 361.8589838486225 L580 -92.97422611928562 L312.20577136594005 352.8589838486225 Z" fill="#ffe9a8"/><path d="M334.6482322781408 370.079689783217 L695.9797974644665 -3.979797464466685 L321.920310216783 357.3517677218592 Z" fill="#ffe9a8"/><path d="M339.1410161513775 379.79422863405995 L784.9742261192855 111.99999999999977 L330.1410161513775 364.20577136594005 Z" fill="#ffe9a8"/><path d="M340.96640445748545 390.34057063250077 L840.9184627218781 247.06133474258792 L336.30766164564005 372.9539057592975 Z" fill="#ffe9a8"/></g>
  <circle cx="300" cy="392" r="230" fill="url(#glow)"/>
  <g opacity="0.95">
    <circle cx="300" cy="392" r="176" fill="#140f33"/>
    <circle cx="300" cy="392" r="176" fill="#3fe0a0" opacity="0.12"/>
    <circle cx="300" cy="392" r="176" fill="none" stroke="#f4d35e" stroke-width="2" opacity="0.5"/>
    <circle cx="300" cy="392" r="188" fill="none" stroke="#f4d35e" stroke-width="1" opacity="0.3"/>
  </g>
  
    <path d="M0 760 Q 300 700 600 760 L600 900 L0 900 Z" fill="#0a0716"/>
    <path d="M0 760 Q 300 700 600 760" fill="none" stroke="#f4d35e" stroke-width="2" opacity="0.45"/>
    <path d="M0 812 Q 300 768 600 812 L600 900 L0 900 Z" fill="#000" opacity="0.35"/>
    <g fill="#3fe0a0" opacity="0.3">
      <circle cx="120" cy="792" r="3"/><circle cx="300" cy="772" r="3"/><circle cx="470" cy="792" r="3"/>
    </g>

  <!-- 象徴のイラスト（大きめに） -->
  <g transform="translate(300 392) scale(1.42) translate(-300 -392)">
    
    <circle cx="300" cy="392" r="92" fill="#3fe0a0" opacity="0.20"/>
    <circle cx="300" cy="392" r="92" fill="none" stroke="#3fe0a0" stroke-width="3"/>
    <ellipse cx="300" cy="392" rx="36" ry="92" fill="none" stroke="#f4d35e" stroke-width="2" opacity="0.8"/>
    <ellipse cx="300" cy="392" rx="74" ry="92" fill="none" stroke="#f4d35e" stroke-width="2" opacity="0.6"/>
    <line x1="208" y1="392" x2="392" y2="392" stroke="#f4d35e" stroke-width="2" opacity="0.8"/>
    <line x1="226" y1="340" x2="374" y2="340" stroke="#f4d35e" stroke-width="1.5" opacity="0.6"/>
    <line x1="226" y1="444" x2="374" y2="444" stroke="#f4d35e" stroke-width="1.5" opacity="0.6"/>
    <g fill="#f4d35e" opacity="0.9"></g>
  </g>

  <rect width="600" height="900" fill="url(#vig)"/>
</svg>