<svg xmlns="http://www.w3.org/2000/svg" viewBox="0 0 600 900" width="600" height="900">
  <defs>
    <radialGradient id="bg" cx="50%" cy="40%" r="78%">
      <stop offset="0%" stop-color="#241a52"/>
      <stop offset="100%" stop-color="#0c0823"/>
    </radialGradient>
    <radialGradient id="glow" cx="50%" cy="50%" r="50%">
      <stop offset="0%" stop-color="#5b91ff" stop-opacity="0.6"/>
      <stop offset="55%" stop-color="#5b91ff" stop-opacity="0.12"/>
      <stop offset="100%" stop-color="#5b91ff" stop-opacity="0"/>
    </radialGradient>
    <radialGradient id="vig" cx="50%" cy="46%" r="72%">
      <stop offset="62%" stop-color="#000" stop-opacity="0"/>
      <stop offset="100%" stop-color="#000" stop-opacity="0.55"/>
    </radialGradient>
  </defs>

  <rect width="600" height="900" fill="url(#bg)"/>
  <g><circle cx="528.2" cy="685.4" r="1.1" fill="#fff" opacity="0.62"/><circle cx="520.5" cy="400.5" r="1.5" fill="#fff" opacity="0.45"/><circle cx="176.7" cy="158.4" r="1.5" fill="#fff" opacity="0.45"/><circle cx="546.1" cy="210.9" r="1.7" fill="#fff" opacity="0.78"/><circle cx="415.3" cy="744.5" r="0.7" fill="#fff" opacity="0.29"/><circle cx="108.6" cy="207.9" r="1.8" fill="#fff" opacity="0.50"/><circle cx="424.2" cy="147.7" r="1.8" fill="#fff" opacity="0.84"/><circle cx="457.2" cy="657.0" r="2.2" fill="#fff" opacity="0.72"/><circle cx="570.0" cy="235.0" r="0.9" fill="#fff" opacity="0.33"/><circle cx="399.5" cy="642.7" r="1.0" fill="#fff" opacity="0.52"/><circle cx="70.6" cy="517.5" r="0.5" fill="#fff" opacity="0.57"/><circle cx="495.7" cy="481.5" r="1.4" fill="#fff" opacity="0.23"/><circle cx="367.8" cy="708.8" r="2.0" fill="#fff" opacity="0.25"/><circle cx="337.3" cy="629.4" r="0.8" fill="#fff" opacity="0.31"/><circle cx="89.8" cy="480.0" r="2.0" fill="#fff" opacity="0.49"/><circle cx="239.2" cy="607.1" r="1.2" fill="#fff" opacity="0.22"/><circle cx="510.2" cy="404.1" r="1.3" fill="#fff" opacity="0.67"/><circle cx="105.5" cy="441.5" r="1.2" fill="#fff" opacity="0.56"/><circle cx="331.8" cy="41.3" r="0.9" fill="#fff" opacity="0.39"/><circle cx="402.4" cy="540.3" r="1.0" fill="#fff" opacity="0.82"/><circle cx="154.0" cy="722.1" r="1.3" fill="#fff" opacity="0.89"/><circle cx="120.6" cy="826.9" r="2.1" fill="#fff" opacity="0.42"/><circle cx="480.6" cy="856.5" r="2.0" fill="#fff" opacity="0.70"/><circle cx="342.6" cy="595.7" r="1.5" fill="#fff" opacity="0.77"/><circle cx="555.1" cy="823.6" r="1.3" fill="#fff" opacity="0.39"/><circle cx="211.2" cy="567.4" r="0.8" fill="#fff" opacity="0.45"/><circle cx="368.0" cy="102.2" r="0.5" fill="#fff" opacity="0.86"/><circle cx="544.3" cy="349.4" r="0.8" fill="#fff" opacity="0.36"/><circle cx="221.2" cy="623.9" r="0.8" fill="#fff" opacity="0.31"/><circle cx="389.5" cy="560.3" r="1.0" fill="#fff" opacity="0.62"/><circle cx="447.5" cy="501.6" r="1.1" fill="#fff" opacity="0.81"/><circle cx="366.3" cy="727.9" r="2.2" fill="#fff" opacity="0.82"/><circle cx="70.0" cy="400.2" r="0.8" fill="#fff" opacity="0.28"/><circle cx="121.2" cy="229.7" r="1.8" fill="#fff" opacity="0.66"/><circle cx="77.5" cy="506.8" r="1.6" fill="#fff" opacity="0.82"/><circle cx="228.0" cy="761.2" r="2.0" fill="#fff" opacity="0.40"/><circle cx="494.9" cy="697.6" r="0.6" fill="#fff" opacity="0.22"/><circle cx="87.4" cy="80.1" r="0.7" fill="#fff" opacity="0.43"/><circle cx="152.9" cy="670.9" r="2.0" fill="#fff" opacity="0.69"/><circle cx="59.6" cy="228.1" r="1.1" fill="#fff" opacity="0.41"/><circle cx="486.6" cy="603.4" r="1.8" fill="#fff" opacity="0.44"/><circle cx="151.1" cy="836.9" r="1.8" fill="#fff" opacity="0.76"/><circle cx="196.9" cy="80.6" r="0.7" fill="#fff" opacity="0.48"/><circle cx="464.7" cy="491.0" r="1.3" fill="#fff" opacity="0.43"/><circle cx="62.6" cy="391.7" r="1.1" fill="#fff" opacity="0.69"/><circle cx="501.5" cy="485.9" r="1.6" fill="#fff" opacity="0.88"/><circle cx="551.5" cy="750.8" r="2.0" fill="#fff" opacity="0.88"/><circle cx="397.0" cy="220.5" r="1.2" fill="#fff" opacity="0.58"/><circle cx="226.6" cy="650.8" r="0.4" fill="#fff" opacity="0.65"/><circle cx="531.1" cy="693.7" r="1.6" fill="#fff" opacity="0.63"/><circle cx="99.1" cy="229.7" r="1.5" fill="#fff" opacity="0.85"/><circle cx="163.9" cy="93.9" r="1.0" fill="#fff" opacity="0.41"/><circle cx="475.4" cy="111.9" r="1.2" fill="#fff" opacity="0.54"/><circle cx="371.0" cy="569.8" r="1.9" fill="#fff" opacity="0.23"/><circle cx="208.8" cy="790.2" r="1.0" fill="#fff" opacity="0.41"/><circle cx="121.7" cy="592.3" r="1.2" fill="#fff" opacity="0.79"/><circle cx="117.0" cy="459.2" r="1.5" fill="#fff" opacity="0.66"/><circle cx="513.8" cy="168.2" r="1.0" fill="#fff" opacity="0.34"/></g>
  <g opacity="0.16"><path d="M340 401 L860 392 L340 383 Z" fill="#ffe9a8"/><path d="M336.30766164564005 411.0460942407025 L840.9184627218782 536.9386652574117 L340.96640445748545 393.65942936749923 Z" fill="#ffe9a8"/><path d="M330.1410161513775 419.79422863405995 L784.9742261192857 672 L339.1410161513775 404.20577136594005 Z" fill="#ffe9a8"/><path d="M321.920310216783 426.6482322781408 L695.9797974644666 787.9797974644666 L334.6482322781408 413.920310216783 Z" fill="#ffe9a8"/><path d="M312.20577136594005 431.1410161513775 L580 876.9742261192856 L327.79422863405995 422.1410161513775 Z" fill="#ffe9a8"/><path d="M301.65942936749923 432.96640445748545 L444.9386652574116 932.9184627218782 L319.0460942407025 428.30766164564005 Z" fill="#ffe9a8"/><path d="M291 432 L300.00000000000006 952 L309 432 Z" fill="#ffe9a8"/><path d="M280.9539057592975 428.30766164564005 L155.06133474258846 932.9184627218782 L298.34057063250077 432.96640445748545 Z" fill="#ffe9a8"/><path d="M272.20577136594005 422.1410161513775 L20.000000000000114 876.9742261192857 L287.79422863405995 431.1410161513775 Z" fill="#ffe9a8"/><path d="M265.3517677218592 413.920310216783 L-95.97979746446657 787.9797974644666 L278.079689783217 426.6482322781408 Z" fill="#ffe9a8"/><path d="M260.8589838486225 404.20577136594005 L-184.97422611928567 672 L269.8589838486225 419.79422863405995 Z" fill="#ffe9a8"/><path d="M259.03359554251455 393.65942936749923 L-240.9184627218782 536.9386652574118 L263.69233835435995 411.0460942407025 Z" fill="#ffe9a8"/><path d="M260 383 L-260 392.00000000000006 L260 401 Z" fill="#ffe9a8"/><path d="M263.69233835435995 372.9539057592975 L-240.9184627218782 247.06133474258834 L259.03359554251455 390.34057063250077 Z" fill="#ffe9a8"/><path d="M269.8589838486224 364.20577136594005 L-184.97422611928573 112.00000000000017 L260.8589838486224 379.79422863405995 Z" fill="#ffe9a8"/><path d="M278.079689783217 357.3517677218592 L-95.97979746446686 -3.979797464466401 L265.3517677218592 370.079689783217 Z" fill="#ffe9a8"/><path d="M287.79422863405995 352.8589838486225 L19.999999999999773 -92.97422611928556 L272.20577136594005 361.8589838486225 Z" fill="#ffe9a8"/><path d="M298.34057063250077 351.03359554251455 L155.06133474258846 -148.9184627218782 L280.9539057592975 355.69233835435995 Z" fill="#ffe9a8"/><path d="M309 352 L299.9999999999999 -168 L291 352 Z" fill="#ffe9a8"/><path d="M319.0460942407024 355.69233835435995 L444.93866525741134 -148.9184627218783 L301.6594293674992 351.03359554251455 Z" fill="#ffe9a8"/><path d="M327.79422863405995 361.8589838486225 L580 -92.97422611928562 L312.20577136594005 352.8589838486225 Z" fill="#ffe9a8"/><path d="M334.6482322781408 370.079689783217 L695.9797974644665 -3.979797464466685 L321.920310216783 357.3517677218592 Z" fill="#ffe9a8"/><path d="M339.1410161513775 379.79422863405995 L784.9742261192855 111.99999999999977 L330.1410161513775 364.20577136594005 Z" fill="#ffe9a8"/><path d="M340.96640445748545 390.34057063250077 L840.9184627218781 247.06133474258792 L336.30766164564005 372.9539057592975 Z" fill="#ffe9a8"/></g>
  <circle cx="300" cy="392" r="230" fill="url(#glow)"/>
  <g opacity="0.95">
    <circle cx="300" cy="392" r="176" fill="#140f33"/>
    <circle cx="300" cy="392" r="176" fill="#5b91ff" opacity="0.12"/>
    <circle cx="300" cy="392" r="176" fill="none" stroke="#f4d35e" stroke-width="2" opacity="0.5"/>
    <circle cx="300" cy="392" r="188" fill="none" stroke="#f4d35e" stroke-width="1" opacity="0.3"/>
  </g>
  
    <path d="M0 760 Q 300 700 600 760 L600 900 L0 900 Z" fill="#0a0716"/>
    <path d="M0 760 Q 300 700 600 760" fill="none" stroke="#f4d35e" stroke-width="2" opacity="0.45"/>
    <path d="M0 812 Q 300 768 600 812 L600 900 L0 900 Z" fill="#000" opacity="0.35"/>
    <g fill="#5b91ff" opacity="0.3">
      <circle cx="120" cy="792" r="3"/><circle cx="300" cy="772" r="3"/><circle cx="470" cy="792" r="3"/>
    </g>

  <!-- 象徴のイラスト（大きめに） -->
  <g transform="translate(300 392) scale(1.42) translate(-300 -392)">
    
    <rect x="262" y="332" width="76" height="150" rx="4" fill="#5b91ff" opacity="0.30" stroke="#5b91ff" stroke-width="3"/>
    <polygon points="258,332 342,332 300,304" fill="#f4d35e" opacity="0.9"/>
    <g fill="#f4d35e" opacity="0.85">
      <rect x="276" y="350" width="12" height="16" rx="2"/><rect x="312" y="350" width="12" height="16" rx="2"/>
      <rect x="276" y="380" width="12" height="16" rx="2"/><rect x="312" y="380" width="12" height="16" rx="2"/>
      <rect x="276" y="410" width="12" height="16" rx="2"/><rect x="312" y="410" width="12" height="16" rx="2"/>
    </g>
    <line x1="300" y1="298" x2="300" y2="478" stroke="#dfe3ea" stroke-width="9"/>
    <polygon points="295,298 305,298 300,276" fill="#dfe3ea"/>
    <line x1="270" y1="446" x2="330" y2="446" stroke="#f4d35e" stroke-width="9"/>
    <circle cx="300" cy="486" r="8" fill="#f4d35e"/>
  </g>

  <rect width="600" height="900" fill="url(#vig)"/>
</svg>