<svg xmlns="http://www.w3.org/2000/svg" viewBox="0 0 600 900" width="600" height="900">
  <defs>
    <radialGradient id="bg" cx="50%" cy="40%" r="78%">
      <stop offset="0%" stop-color="#172a5e"/>
      <stop offset="100%" stop-color="#070a1f"/>
    </radialGradient>
    <radialGradient id="glow" cx="50%" cy="50%" r="50%">
      <stop offset="0%" stop-color="#7b7bff" stop-opacity="0.6"/>
      <stop offset="55%" stop-color="#7b7bff" stop-opacity="0.12"/>
      <stop offset="100%" stop-color="#7b7bff" stop-opacity="0"/>
    </radialGradient>
    <radialGradient id="vig" cx="50%" cy="46%" r="72%">
      <stop offset="62%" stop-color="#000" stop-opacity="0"/>
      <stop offset="100%" stop-color="#000" stop-opacity="0.55"/>
    </radialGradient>
  </defs>

  <rect width="600" height="900" fill="url(#bg)"/>
  <g><circle cx="418.9" cy="668.7" r="1.1" fill="#fff" opacity="0.64"/><circle cx="255.0" cy="606.2" r="1.2" fill="#fff" opacity="0.55"/><circle cx="507.0" cy="728.5" r="1.0" fill="#fff" opacity="0.28"/><circle cx="514.2" cy="337.3" r="2.2" fill="#fff" opacity="0.40"/><circle cx="47.4" cy="526.9" r="1.7" fill="#fff" opacity="0.20"/><circle cx="114.3" cy="470.8" r="0.9" fill="#fff" opacity="0.27"/><circle cx="465.9" cy="802.6" r="1.8" fill="#fff" opacity="0.56"/><circle cx="304.4" cy="72.3" r="1.5" fill="#fff" opacity="0.73"/><circle cx="132.5" cy="537.8" r="0.6" fill="#fff" opacity="0.79"/><circle cx="527.9" cy="772.8" r="0.8" fill="#fff" opacity="0.20"/><circle cx="120.4" cy="504.4" r="0.8" fill="#fff" opacity="0.52"/><circle cx="209.1" cy="799.7" r="0.8" fill="#fff" opacity="0.53"/><circle cx="312.7" cy="852.3" r="0.6" fill="#fff" opacity="0.85"/><circle cx="201.2" cy="692.7" r="1.2" fill="#fff" opacity="0.85"/><circle cx="505.1" cy="795.8" r="2.0" fill="#fff" opacity="0.68"/><circle cx="208.6" cy="196.8" r="0.5" fill="#fff" opacity="0.35"/><circle cx="69.1" cy="160.3" r="1.4" fill="#fff" opacity="0.78"/><circle cx="330.4" cy="152.0" r="1.0" fill="#fff" opacity="0.76"/><circle cx="104.8" cy="369.2" r="2.1" fill="#fff" opacity="0.72"/><circle cx="315.3" cy="867.8" r="2.2" fill="#fff" opacity="0.30"/><circle cx="398.8" cy="244.4" r="1.9" fill="#fff" opacity="0.25"/><circle cx="395.9" cy="216.4" r="1.8" fill="#fff" opacity="0.55"/><circle cx="132.2" cy="546.5" r="1.8" fill="#fff" opacity="0.21"/><circle cx="368.6" cy="55.8" r="1.6" fill="#fff" opacity="0.30"/><circle cx="48.9" cy="474.8" r="1.7" fill="#fff" opacity="0.25"/><circle cx="386.9" cy="38.5" r="1.9" fill="#fff" opacity="0.54"/><circle cx="411.9" cy="639.6" r="1.0" fill="#fff" opacity="0.56"/><circle cx="565.1" cy="125.8" r="1.1" fill="#fff" opacity="0.75"/><circle cx="535.5" cy="461.0" r="1.8" fill="#fff" opacity="0.43"/><circle cx="486.4" cy="695.7" r="0.7" fill="#fff" opacity="0.22"/><circle cx="194.3" cy="122.0" r="0.8" fill="#fff" opacity="0.40"/><circle cx="125.8" cy="561.4" r="1.1" fill="#fff" opacity="0.48"/><circle cx="511.5" cy="798.6" r="0.9" fill="#fff" opacity="0.81"/><circle cx="221.7" cy="104.3" r="0.6" fill="#fff" opacity="0.61"/><circle cx="410.5" cy="44.7" r="1.8" fill="#fff" opacity="0.53"/><circle cx="353.6" cy="104.2" r="0.5" fill="#fff" opacity="0.43"/><circle cx="484.4" cy="777.5" r="0.8" fill="#fff" opacity="0.33"/><circle cx="231.4" cy="853.0" r="1.8" fill="#fff" opacity="0.78"/><circle cx="182.2" cy="547.2" r="1.2" fill="#fff" opacity="0.49"/><circle cx="291.2" cy="748.8" r="1.4" fill="#fff" opacity="0.69"/><circle cx="264.2" cy="750.1" r="2.1" fill="#fff" opacity="0.24"/><circle cx="187.7" cy="688.9" r="1.0" fill="#fff" opacity="0.45"/><circle cx="117.8" cy="342.1" r="1.6" fill="#fff" opacity="0.57"/><circle cx="260.4" cy="776.9" r="0.4" fill="#fff" opacity="0.57"/><circle cx="323.0" cy="712.1" r="1.4" fill="#fff" opacity="0.65"/><circle cx="426.7" cy="574.3" r="1.3" fill="#fff" opacity="0.73"/><circle cx="259.1" cy="830.3" r="1.1" fill="#fff" opacity="0.90"/><circle cx="134.9" cy="61.3" r="1.7" fill="#fff" opacity="0.45"/><circle cx="241.0" cy="68.8" r="1.3" fill="#fff" opacity="0.66"/><circle cx="60.6" cy="730.3" r="1.8" fill="#fff" opacity="0.82"/><circle cx="464.6" cy="39.3" r="1.5" fill="#fff" opacity="0.73"/></g>
  <g opacity="0.16"><path d="M340 401 L860 392 L340 383 Z" fill="#bcd0ff"/><path d="M336.30766164564005 411.0460942407025 L840.9184627218782 536.9386652574117 L340.96640445748545 393.65942936749923 Z" fill="#bcd0ff"/><path d="M330.1410161513775 419.79422863405995 L784.9742261192857 672 L339.1410161513775 404.20577136594005 Z" fill="#bcd0ff"/><path d="M321.920310216783 426.6482322781408 L695.9797974644666 787.9797974644666 L334.6482322781408 413.920310216783 Z" fill="#bcd0ff"/><path d="M312.20577136594005 431.1410161513775 L580 876.9742261192856 L327.79422863405995 422.1410161513775 Z" fill="#bcd0ff"/><path d="M301.65942936749923 432.96640445748545 L444.9386652574116 932.9184627218782 L319.0460942407025 428.30766164564005 Z" fill="#bcd0ff"/><path d="M291 432 L300.00000000000006 952 L309 432 Z" fill="#bcd0ff"/><path d="M280.9539057592975 428.30766164564005 L155.06133474258846 932.9184627218782 L298.34057063250077 432.96640445748545 Z" fill="#bcd0ff"/><path d="M272.20577136594005 422.1410161513775 L20.000000000000114 876.9742261192857 L287.79422863405995 431.1410161513775 Z" fill="#bcd0ff"/><path d="M265.3517677218592 413.920310216783 L-95.97979746446657 787.9797974644666 L278.079689783217 426.6482322781408 Z" fill="#bcd0ff"/><path d="M260.8589838486225 404.20577136594005 L-184.97422611928567 672 L269.8589838486225 419.79422863405995 Z" fill="#bcd0ff"/><path d="M259.03359554251455 393.65942936749923 L-240.9184627218782 536.9386652574118 L263.69233835435995 411.0460942407025 Z" fill="#bcd0ff"/><path d="M260 383 L-260 392.00000000000006 L260 401 Z" fill="#bcd0ff"/><path d="M263.69233835435995 372.9539057592975 L-240.9184627218782 247.06133474258834 L259.03359554251455 390.34057063250077 Z" fill="#bcd0ff"/><path d="M269.8589838486224 364.20577136594005 L-184.97422611928573 112.00000000000017 L260.8589838486224 379.79422863405995 Z" fill="#bcd0ff"/><path d="M278.079689783217 357.3517677218592 L-95.97979746446686 -3.979797464466401 L265.3517677218592 370.079689783217 Z" fill="#bcd0ff"/><path d="M287.79422863405995 352.8589838486225 L19.999999999999773 -92.97422611928556 L272.20577136594005 361.8589838486225 Z" fill="#bcd0ff"/><path d="M298.34057063250077 351.03359554251455 L155.06133474258846 -148.9184627218782 L280.9539057592975 355.69233835435995 Z" fill="#bcd0ff"/><path d="M309 352 L299.9999999999999 -168 L291 352 Z" fill="#bcd0ff"/><path d="M319.0460942407024 355.69233835435995 L444.93866525741134 -148.9184627218783 L301.6594293674992 351.03359554251455 Z" fill="#bcd0ff"/><path d="M327.79422863405995 361.8589838486225 L580 -92.97422611928562 L312.20577136594005 352.8589838486225 Z" fill="#bcd0ff"/><path d="M334.6482322781408 370.079689783217 L695.9797974644665 -3.979797464466685 L321.920310216783 357.3517677218592 Z" fill="#bcd0ff"/><path d="M339.1410161513775 379.79422863405995 L784.9742261192855 111.99999999999977 L330.1410161513775 364.20577136594005 Z" fill="#bcd0ff"/><path d="M340.96640445748545 390.34057063250077 L840.9184627218781 247.06133474258792 L336.30766164564005 372.9539057592975 Z" fill="#bcd0ff"/></g>
  <circle cx="300" cy="392" r="230" fill="url(#glow)"/>
  <g opacity="0.95">
      <circle cx="300" cy="392" r="176" fill="#0a1030"/>
      <ellipse cx="300" cy="392" rx="210" ry="176" fill="none" stroke="#9db4ff" stroke-width="1.5" opacity="0.4" transform="rotate(20 300 392)"/>
      <circle cx="300" cy="392" r="176" fill="none" stroke="#9db4ff" stroke-width="1.5" opacity="0.5"/>
    </g>
  
    <path d="M0 760 Q 300 700 600 760 L600 900 L0 900 Z" fill="#0a0716"/>
    <path d="M0 760 Q 300 700 600 760" fill="none" stroke="#9db4ff" stroke-width="2" opacity="0.45"/>
    <path d="M0 812 Q 300 768 600 812 L600 900 L0 900 Z" fill="#000" opacity="0.35"/>
    <g fill="#7b7bff" opacity="0.3">
      <circle cx="120" cy="792" r="3"/><circle cx="300" cy="772" r="3"/><circle cx="470" cy="792" r="3"/>
    </g>

  <!-- 象徴のイラスト（大きめに） -->
  <g transform="translate(300 392) scale(1.42) translate(-300 -392)">
    
    <circle cx="300" cy="392" r="84" fill="#7b7bff" opacity="0.18"/>
    <circle cx="300" cy="392" r="84" fill="none" stroke="#9db4ff" stroke-width="3"/>
    <line x1="300.0" y1="320.0" x2="300.0" y2="308.0" stroke="#9db4ff" stroke-width="3"/><line x1="336.0" y1="329.6" x2="342.0" y2="319.3" stroke="#9db4ff" stroke-width="3"/><line x1="362.4" y1="356.0" x2="372.7" y2="350.0" stroke="#9db4ff" stroke-width="3"/><line x1="372.0" y1="392.0" x2="384.0" y2="392.0" stroke="#9db4ff" stroke-width="3"/><line x1="362.4" y1="428.0" x2="372.7" y2="434.0" stroke="#9db4ff" stroke-width="3"/><line x1="336.0" y1="454.4" x2="342.0" y2="464.7" stroke="#9db4ff" stroke-width="3"/><line x1="300.0" y1="464.0" x2="300.0" y2="476.0" stroke="#9db4ff" stroke-width="3"/><line x1="264.0" y1="454.4" x2="258.0" y2="464.7" stroke="#9db4ff" stroke-width="3"/><line x1="237.6" y1="428.0" x2="227.3" y2="434.0" stroke="#9db4ff" stroke-width="3"/><line x1="228.0" y1="392.0" x2="216.0" y2="392.0" stroke="#9db4ff" stroke-width="3"/><line x1="237.6" y1="356.0" x2="227.3" y2="350.0" stroke="#9db4ff" stroke-width="3"/><line x1="264.0" y1="329.6" x2="258.0" y2="319.3" stroke="#9db4ff" stroke-width="3"/>
    <line x1="300" y1="392" x2="300" y2="346" stroke="#fff" stroke-width="6" stroke-linecap="round"/>
    <line x1="300" y1="392" x2="340" y2="408" stroke="#fff" stroke-width="5" stroke-linecap="round"/>
    <circle cx="300" cy="392" r="7" fill="#9db4ff"/>
    <circle cx="300" cy="392" r="116" fill="none" stroke="#ff3b4e" stroke-width="12" opacity="0.92"/>
    <line x1="218" y1="310" x2="382" y2="474" stroke="#ff3b4e" stroke-width="12" opacity="0.92" stroke-linecap="round"/>
  </g>

  <rect width="600" height="900" fill="url(#vig)"/>
</svg>