<svg xmlns="http://www.w3.org/2000/svg" viewBox="0 0 600 900" width="600" height="900">
  <defs>
    <radialGradient id="bg" cx="50%" cy="40%" r="78%">
      <stop offset="0%" stop-color="#241a52"/>
      <stop offset="100%" stop-color="#0c0823"/>
    </radialGradient>
    <radialGradient id="glow" cx="50%" cy="50%" r="50%">
      <stop offset="0%" stop-color="#ffc24b" stop-opacity="0.6"/>
      <stop offset="55%" stop-color="#ffc24b" stop-opacity="0.12"/>
      <stop offset="100%" stop-color="#ffc24b" stop-opacity="0"/>
    </radialGradient>
    <radialGradient id="vig" cx="50%" cy="46%" r="72%">
      <stop offset="62%" stop-color="#000" stop-opacity="0"/>
      <stop offset="100%" stop-color="#000" stop-opacity="0.55"/>
    </radialGradient>
  </defs>

  <rect width="600" height="900" fill="url(#bg)"/>
  <g><circle cx="94.9" cy="670.2" r="0.8" fill="#fff" opacity="0.59"/><circle cx="134.7" cy="523.4" r="2.0" fill="#fff" opacity="0.31"/><circle cx="135.4" cy="704.7" r="2.0" fill="#fff" opacity="0.30"/><circle cx="38.1" cy="346.0" r="1.2" fill="#fff" opacity="0.88"/><circle cx="565.1" cy="277.5" r="0.6" fill="#fff" opacity="0.50"/><circle cx="445.6" cy="807.9" r="1.0" fill="#fff" opacity="0.89"/><circle cx="179.3" cy="709.7" r="0.5" fill="#fff" opacity="0.66"/><circle cx="256.6" cy="842.7" r="1.8" fill="#fff" opacity="0.55"/><circle cx="174.0" cy="722.3" r="1.2" fill="#fff" opacity="0.62"/><circle cx="350.2" cy="818.9" r="1.7" fill="#fff" opacity="0.72"/><circle cx="419.3" cy="207.5" r="1.3" fill="#fff" opacity="0.54"/><circle cx="518.2" cy="747.5" r="0.5" fill="#fff" opacity="0.43"/><circle cx="359.8" cy="646.1" r="1.7" fill="#fff" opacity="0.60"/><circle cx="247.2" cy="710.5" r="1.1" fill="#fff" opacity="0.62"/><circle cx="484.4" cy="561.6" r="0.8" fill="#fff" opacity="0.70"/><circle cx="104.7" cy="752.0" r="1.6" fill="#fff" opacity="0.50"/><circle cx="568.2" cy="544.0" r="1.4" fill="#fff" opacity="0.84"/><circle cx="30.0" cy="116.2" r="0.5" fill="#fff" opacity="0.24"/><circle cx="82.8" cy="767.4" r="0.7" fill="#fff" opacity="0.81"/><circle cx="161.5" cy="641.7" r="2.0" fill="#fff" opacity="0.68"/><circle cx="453.6" cy="702.5" r="0.7" fill="#fff" opacity="0.71"/><circle cx="217.0" cy="202.2" r="0.5" fill="#fff" opacity="0.40"/><circle cx="151.0" cy="600.9" r="2.0" fill="#fff" opacity="0.46"/><circle cx="528.5" cy="862.6" r="0.7" fill="#fff" opacity="0.37"/><circle cx="72.5" cy="597.3" r="0.9" fill="#fff" opacity="0.85"/><circle cx="370.8" cy="624.5" r="1.7" fill="#fff" opacity="0.28"/><circle cx="275.8" cy="216.0" r="0.6" fill="#fff" opacity="0.31"/><circle cx="127.7" cy="774.7" r="0.8" fill="#fff" opacity="0.42"/><circle cx="501.7" cy="414.6" r="1.5" fill="#fff" opacity="0.63"/><circle cx="525.9" cy="591.3" r="1.0" fill="#fff" opacity="0.45"/><circle cx="291.4" cy="153.0" r="1.5" fill="#fff" opacity="0.62"/><circle cx="444.7" cy="748.4" r="1.4" fill="#fff" opacity="0.65"/><circle cx="86.2" cy="784.6" r="0.7" fill="#fff" opacity="0.21"/><circle cx="109.0" cy="234.0" r="1.5" fill="#fff" opacity="0.87"/><circle cx="558.0" cy="869.6" r="1.8" fill="#fff" opacity="0.74"/><circle cx="215.6" cy="795.4" r="1.8" fill="#fff" opacity="0.24"/><circle cx="133.1" cy="227.1" r="2.0" fill="#fff" opacity="0.83"/><circle cx="169.2" cy="852.4" r="2.1" fill="#fff" opacity="0.80"/><circle cx="136.8" cy="135.1" r="2.1" fill="#fff" opacity="0.75"/><circle cx="184.6" cy="168.4" r="0.7" fill="#fff" opacity="0.33"/><circle cx="51.7" cy="457.6" r="0.5" fill="#fff" opacity="0.35"/><circle cx="127.2" cy="554.0" r="1.3" fill="#fff" opacity="0.32"/><circle cx="510.2" cy="335.5" r="1.0" fill="#fff" opacity="0.55"/><circle cx="381.9" cy="234.5" r="1.5" fill="#fff" opacity="0.36"/><circle cx="45.3" cy="846.9" r="0.8" fill="#fff" opacity="0.38"/><circle cx="446.9" cy="508.4" r="0.9" fill="#fff" opacity="0.69"/><circle cx="322.0" cy="621.0" r="0.8" fill="#fff" opacity="0.28"/><circle cx="536.1" cy="732.7" r="1.8" fill="#fff" opacity="0.32"/><circle cx="104.9" cy="839.0" r="0.4" fill="#fff" opacity="0.61"/><circle cx="70.7" cy="504.9" r="1.3" fill="#fff" opacity="0.46"/><circle cx="298.4" cy="681.5" r="1.8" fill="#fff" opacity="0.32"/></g>
  <g opacity="0.16"><path d="M340 401 L860 392 L340 383 Z" fill="#ffe9a8"/><path d="M336.30766164564005 411.0460942407025 L840.9184627218782 536.9386652574117 L340.96640445748545 393.65942936749923 Z" fill="#ffe9a8"/><path d="M330.1410161513775 419.79422863405995 L784.9742261192857 672 L339.1410161513775 404.20577136594005 Z" fill="#ffe9a8"/><path d="M321.920310216783 426.6482322781408 L695.9797974644666 787.9797974644666 L334.6482322781408 413.920310216783 Z" fill="#ffe9a8"/><path d="M312.20577136594005 431.1410161513775 L580 876.9742261192856 L327.79422863405995 422.1410161513775 Z" fill="#ffe9a8"/><path d="M301.65942936749923 432.96640445748545 L444.9386652574116 932.9184627218782 L319.0460942407025 428.30766164564005 Z" fill="#ffe9a8"/><path d="M291 432 L300.00000000000006 952 L309 432 Z" fill="#ffe9a8"/><path d="M280.9539057592975 428.30766164564005 L155.06133474258846 932.9184627218782 L298.34057063250077 432.96640445748545 Z" fill="#ffe9a8"/><path d="M272.20577136594005 422.1410161513775 L20.000000000000114 876.9742261192857 L287.79422863405995 431.1410161513775 Z" fill="#ffe9a8"/><path d="M265.3517677218592 413.920310216783 L-95.97979746446657 787.9797974644666 L278.079689783217 426.6482322781408 Z" fill="#ffe9a8"/><path d="M260.8589838486225 404.20577136594005 L-184.97422611928567 672 L269.8589838486225 419.79422863405995 Z" fill="#ffe9a8"/><path d="M259.03359554251455 393.65942936749923 L-240.9184627218782 536.9386652574118 L263.69233835435995 411.0460942407025 Z" fill="#ffe9a8"/><path d="M260 383 L-260 392.00000000000006 L260 401 Z" fill="#ffe9a8"/><path d="M263.69233835435995 372.9539057592975 L-240.9184627218782 247.06133474258834 L259.03359554251455 390.34057063250077 Z" fill="#ffe9a8"/><path d="M269.8589838486224 364.20577136594005 L-184.97422611928573 112.00000000000017 L260.8589838486224 379.79422863405995 Z" fill="#ffe9a8"/><path d="M278.079689783217 357.3517677218592 L-95.97979746446686 -3.979797464466401 L265.3517677218592 370.079689783217 Z" fill="#ffe9a8"/><path d="M287.79422863405995 352.8589838486225 L19.999999999999773 -92.97422611928556 L272.20577136594005 361.8589838486225 Z" fill="#ffe9a8"/><path d="M298.34057063250077 351.03359554251455 L155.06133474258846 -148.9184627218782 L280.9539057592975 355.69233835435995 Z" fill="#ffe9a8"/><path d="M309 352 L299.9999999999999 -168 L291 352 Z" fill="#ffe9a8"/><path d="M319.0460942407024 355.69233835435995 L444.93866525741134 -148.9184627218783 L301.6594293674992 351.03359554251455 Z" fill="#ffe9a8"/><path d="M327.79422863405995 361.8589838486225 L580 -92.97422611928562 L312.20577136594005 352.8589838486225 Z" fill="#ffe9a8"/><path d="M334.6482322781408 370.079689783217 L695.9797974644665 -3.979797464466685 L321.920310216783 357.3517677218592 Z" fill="#ffe9a8"/><path d="M339.1410161513775 379.79422863405995 L784.9742261192855 111.99999999999977 L330.1410161513775 364.20577136594005 Z" fill="#ffe9a8"/><path d="M340.96640445748545 390.34057063250077 L840.9184627218781 247.06133474258792 L336.30766164564005 372.9539057592975 Z" fill="#ffe9a8"/></g>
  <circle cx="300" cy="392" r="230" fill="url(#glow)"/>
  <g opacity="0.95">
    <circle cx="300" cy="392" r="176" fill="#140f33"/>
    <circle cx="300" cy="392" r="176" fill="#ffc24b" opacity="0.12"/>
    <circle cx="300" cy="392" r="176" fill="none" stroke="#f4d35e" stroke-width="2" opacity="0.5"/>
    <circle cx="300" cy="392" r="188" fill="none" stroke="#f4d35e" stroke-width="1" opacity="0.3"/>
  </g>
  
    <path d="M0 760 Q 300 700 600 760 L600 900 L0 900 Z" fill="#0a0716"/>
    <path d="M0 760 Q 300 700 600 760" fill="none" stroke="#f4d35e" stroke-width="2" opacity="0.45"/>
    <path d="M0 812 Q 300 768 600 812 L600 900 L0 900 Z" fill="#000" opacity="0.35"/>
    <g fill="#ffc24b" opacity="0.3">
      <circle cx="120" cy="792" r="3"/><circle cx="300" cy="772" r="3"/><circle cx="470" cy="792" r="3"/>
    </g>

  <!-- 象徴のイラスト（大きめに） -->
  <g transform="translate(300 392) scale(1.42) translate(-300 -392)">
    
    <line x1="370.0" y1="392.0" x2="412.0" y2="392.0" stroke="#f4d35e" stroke-width="6" stroke-linecap="round"/><line x1="364.7" y1="418.8" x2="420.1" y2="441.7" stroke="#f4d35e" stroke-width="4" stroke-linecap="round"/><line x1="349.5" y1="441.5" x2="379.2" y2="471.2" stroke="#f4d35e" stroke-width="6" stroke-linecap="round"/><line x1="326.8" y1="456.7" x2="349.7" y2="512.1" stroke="#f4d35e" stroke-width="4" stroke-linecap="round"/><line x1="300.0" y1="462.0" x2="300.0" y2="504.0" stroke="#f4d35e" stroke-width="6" stroke-linecap="round"/><line x1="273.2" y1="456.7" x2="250.3" y2="512.1" stroke="#f4d35e" stroke-width="4" stroke-linecap="round"/><line x1="250.5" y1="441.5" x2="220.8" y2="471.2" stroke="#f4d35e" stroke-width="6" stroke-linecap="round"/><line x1="235.3" y1="418.8" x2="179.9" y2="441.7" stroke="#f4d35e" stroke-width="4" stroke-linecap="round"/><line x1="230.0" y1="392.0" x2="188.0" y2="392.0" stroke="#f4d35e" stroke-width="6" stroke-linecap="round"/><line x1="235.3" y1="365.2" x2="179.9" y2="342.3" stroke="#f4d35e" stroke-width="4" stroke-linecap="round"/><line x1="250.5" y1="342.5" x2="220.8" y2="312.8" stroke="#f4d35e" stroke-width="6" stroke-linecap="round"/><line x1="273.2" y1="327.3" x2="250.3" y2="271.9" stroke="#f4d35e" stroke-width="4" stroke-linecap="round"/><line x1="300.0" y1="322.0" x2="300.0" y2="280.0" stroke="#f4d35e" stroke-width="6" stroke-linecap="round"/><line x1="326.8" y1="327.3" x2="349.7" y2="271.9" stroke="#f4d35e" stroke-width="4" stroke-linecap="round"/><line x1="349.5" y1="342.5" x2="379.2" y2="312.8" stroke="#f4d35e" stroke-width="6" stroke-linecap="round"/><line x1="364.7" y1="365.2" x2="420.1" y2="342.3" stroke="#f4d35e" stroke-width="4" stroke-linecap="round"/>
    <circle cx="300" cy="392" r="62" fill="#ffc24b" opacity="0.9"/>
    <circle cx="300" cy="392" r="62" fill="none" stroke="#f4d35e" stroke-width="3"/>
    <circle cx="300" cy="392" r="44" fill="#fff" opacity="0.85"/>
  </g>

  <rect width="600" height="900" fill="url(#vig)"/>
</svg>