<svg xmlns="http://www.w3.org/2000/svg" viewBox="0 0 600 900" width="600" height="900">
  <defs>
    <radialGradient id="bg" cx="50%" cy="40%" r="78%">
      <stop offset="0%" stop-color="#241a52"/>
      <stop offset="100%" stop-color="#0c0823"/>
    </radialGradient>
    <radialGradient id="glow" cx="50%" cy="50%" r="50%">
      <stop offset="0%" stop-color="#c9c2ff" stop-opacity="0.6"/>
      <stop offset="55%" stop-color="#c9c2ff" stop-opacity="0.12"/>
      <stop offset="100%" stop-color="#c9c2ff" stop-opacity="0"/>
    </radialGradient>
    <radialGradient id="vig" cx="50%" cy="46%" r="72%">
      <stop offset="62%" stop-color="#000" stop-opacity="0"/>
      <stop offset="100%" stop-color="#000" stop-opacity="0.55"/>
    </radialGradient>
  </defs>

  <rect width="600" height="900" fill="url(#bg)"/>
  <g><circle cx="447.2" cy="294.8" r="1.1" fill="#fff" opacity="0.43"/><circle cx="567.8" cy="804.8" r="1.5" fill="#fff" opacity="0.74"/><circle cx="175.6" cy="800.1" r="1.3" fill="#fff" opacity="0.64"/><circle cx="328.6" cy="711.3" r="0.5" fill="#fff" opacity="0.29"/><circle cx="241.4" cy="97.5" r="1.1" fill="#fff" opacity="0.54"/><circle cx="481.0" cy="224.0" r="1.2" fill="#fff" opacity="0.70"/><circle cx="182.1" cy="257.1" r="0.8" fill="#fff" opacity="0.68"/><circle cx="507.0" cy="842.8" r="2.0" fill="#fff" opacity="0.87"/><circle cx="481.2" cy="114.9" r="0.8" fill="#fff" opacity="0.64"/><circle cx="182.5" cy="718.9" r="1.9" fill="#fff" opacity="0.73"/><circle cx="324.9" cy="702.4" r="2.0" fill="#fff" opacity="0.72"/><circle cx="281.8" cy="596.2" r="1.2" fill="#fff" opacity="0.23"/><circle cx="288.6" cy="589.6" r="2.0" fill="#fff" opacity="0.87"/><circle cx="369.9" cy="158.3" r="0.9" fill="#fff" opacity="0.68"/><circle cx="199.7" cy="807.4" r="1.4" fill="#fff" opacity="0.47"/><circle cx="450.5" cy="103.5" r="0.9" fill="#fff" opacity="0.60"/><circle cx="484.5" cy="792.0" r="0.7" fill="#fff" opacity="0.63"/><circle cx="93.5" cy="264.0" r="1.6" fill="#fff" opacity="0.33"/><circle cx="520.8" cy="817.0" r="0.5" fill="#fff" opacity="0.51"/><circle cx="374.2" cy="35.5" r="1.6" fill="#fff" opacity="0.79"/><circle cx="45.9" cy="68.1" r="2.1" fill="#fff" opacity="0.27"/><circle cx="567.0" cy="65.3" r="2.0" fill="#fff" opacity="0.38"/><circle cx="363.5" cy="88.6" r="0.5" fill="#fff" opacity="0.47"/><circle cx="77.0" cy="859.7" r="0.8" fill="#fff" opacity="0.35"/><circle cx="515.3" cy="290.6" r="1.8" fill="#fff" opacity="0.72"/><circle cx="231.8" cy="42.9" r="1.3" fill="#fff" opacity="0.45"/><circle cx="217.3" cy="713.6" r="2.1" fill="#fff" opacity="0.47"/><circle cx="336.9" cy="161.1" r="0.7" fill="#fff" opacity="0.43"/><circle cx="440.7" cy="654.6" r="1.3" fill="#fff" opacity="0.55"/><circle cx="370.4" cy="79.2" r="0.5" fill="#fff" opacity="0.30"/><circle cx="503.6" cy="44.4" r="2.1" fill="#fff" opacity="0.26"/><circle cx="200.6" cy="51.6" r="1.5" fill="#fff" opacity="0.21"/><circle cx="131.1" cy="864.3" r="2.0" fill="#fff" opacity="0.56"/><circle cx="511.4" cy="76.0" r="1.1" fill="#fff" opacity="0.70"/><circle cx="432.2" cy="696.3" r="1.1" fill="#fff" opacity="0.66"/><circle cx="113.2" cy="758.8" r="0.6" fill="#fff" opacity="0.78"/><circle cx="171.3" cy="50.4" r="0.7" fill="#fff" opacity="0.78"/><circle cx="378.5" cy="686.9" r="1.6" fill="#fff" opacity="0.53"/><circle cx="162.4" cy="204.9" r="1.2" fill="#fff" opacity="0.42"/><circle cx="509.7" cy="428.3" r="0.9" fill="#fff" opacity="0.22"/><circle cx="420.2" cy="173.5" r="1.5" fill="#fff" opacity="0.33"/><circle cx="516.8" cy="858.9" r="2.0" fill="#fff" opacity="0.88"/><circle cx="354.3" cy="635.7" r="2.2" fill="#fff" opacity="0.43"/><circle cx="458.5" cy="655.8" r="1.6" fill="#fff" opacity="0.65"/><circle cx="399.6" cy="180.3" r="1.1" fill="#fff" opacity="0.37"/><circle cx="238.0" cy="731.6" r="1.7" fill="#fff" opacity="0.69"/><circle cx="341.5" cy="583.5" r="1.4" fill="#fff" opacity="0.79"/><circle cx="518.2" cy="84.9" r="0.9" fill="#fff" opacity="0.57"/><circle cx="95.5" cy="273.1" r="1.9" fill="#fff" opacity="0.77"/><circle cx="511.5" cy="221.8" r="1.8" fill="#fff" opacity="0.84"/><circle cx="538.9" cy="680.5" r="0.7" fill="#fff" opacity="0.29"/><circle cx="509.6" cy="680.4" r="1.3" fill="#fff" opacity="0.46"/><circle cx="550.2" cy="138.7" r="0.5" fill="#fff" opacity="0.46"/></g>
  <g opacity="0.16"><path d="M340 401 L860 392 L340 383 Z" fill="#ffe9a8"/><path d="M336.30766164564005 411.0460942407025 L840.9184627218782 536.9386652574117 L340.96640445748545 393.65942936749923 Z" fill="#ffe9a8"/><path d="M330.1410161513775 419.79422863405995 L784.9742261192857 672 L339.1410161513775 404.20577136594005 Z" fill="#ffe9a8"/><path d="M321.920310216783 426.6482322781408 L695.9797974644666 787.9797974644666 L334.6482322781408 413.920310216783 Z" fill="#ffe9a8"/><path d="M312.20577136594005 431.1410161513775 L580 876.9742261192856 L327.79422863405995 422.1410161513775 Z" fill="#ffe9a8"/><path d="M301.65942936749923 432.96640445748545 L444.9386652574116 932.9184627218782 L319.0460942407025 428.30766164564005 Z" fill="#ffe9a8"/><path d="M291 432 L300.00000000000006 952 L309 432 Z" fill="#ffe9a8"/><path d="M280.9539057592975 428.30766164564005 L155.06133474258846 932.9184627218782 L298.34057063250077 432.96640445748545 Z" fill="#ffe9a8"/><path d="M272.20577136594005 422.1410161513775 L20.000000000000114 876.9742261192857 L287.79422863405995 431.1410161513775 Z" fill="#ffe9a8"/><path d="M265.3517677218592 413.920310216783 L-95.97979746446657 787.9797974644666 L278.079689783217 426.6482322781408 Z" fill="#ffe9a8"/><path d="M260.8589838486225 404.20577136594005 L-184.97422611928567 672 L269.8589838486225 419.79422863405995 Z" fill="#ffe9a8"/><path d="M259.03359554251455 393.65942936749923 L-240.9184627218782 536.9386652574118 L263.69233835435995 411.0460942407025 Z" fill="#ffe9a8"/><path d="M260 383 L-260 392.00000000000006 L260 401 Z" fill="#ffe9a8"/><path d="M263.69233835435995 372.9539057592975 L-240.9184627218782 247.06133474258834 L259.03359554251455 390.34057063250077 Z" fill="#ffe9a8"/><path d="M269.8589838486224 364.20577136594005 L-184.97422611928573 112.00000000000017 L260.8589838486224 379.79422863405995 Z" fill="#ffe9a8"/><path d="M278.079689783217 357.3517677218592 L-95.97979746446686 -3.979797464466401 L265.3517677218592 370.079689783217 Z" fill="#ffe9a8"/><path d="M287.79422863405995 352.8589838486225 L19.999999999999773 -92.97422611928556 L272.20577136594005 361.8589838486225 Z" fill="#ffe9a8"/><path d="M298.34057063250077 351.03359554251455 L155.06133474258846 -148.9184627218782 L280.9539057592975 355.69233835435995 Z" fill="#ffe9a8"/><path d="M309 352 L299.9999999999999 -168 L291 352 Z" fill="#ffe9a8"/><path d="M319.0460942407024 355.69233835435995 L444.93866525741134 -148.9184627218783 L301.6594293674992 351.03359554251455 Z" fill="#ffe9a8"/><path d="M327.79422863405995 361.8589838486225 L580 -92.97422611928562 L312.20577136594005 352.8589838486225 Z" fill="#ffe9a8"/><path d="M334.6482322781408 370.079689783217 L695.9797974644665 -3.979797464466685 L321.920310216783 357.3517677218592 Z" fill="#ffe9a8"/><path d="M339.1410161513775 379.79422863405995 L784.9742261192855 111.99999999999977 L330.1410161513775 364.20577136594005 Z" fill="#ffe9a8"/><path d="M340.96640445748545 390.34057063250077 L840.9184627218781 247.06133474258792 L336.30766164564005 372.9539057592975 Z" fill="#ffe9a8"/></g>
  <circle cx="300" cy="392" r="230" fill="url(#glow)"/>
  <g opacity="0.95">
    <circle cx="300" cy="392" r="176" fill="#140f33"/>
    <circle cx="300" cy="392" r="176" fill="#c9c2ff" opacity="0.12"/>
    <circle cx="300" cy="392" r="176" fill="none" stroke="#f4d35e" stroke-width="2" opacity="0.5"/>
    <circle cx="300" cy="392" r="188" fill="none" stroke="#f4d35e" stroke-width="1" opacity="0.3"/>
  </g>
  
    <path d="M0 760 Q 300 700 600 760 L600 900 L0 900 Z" fill="#0a0716"/>
    <path d="M0 760 Q 300 700 600 760" fill="none" stroke="#f4d35e" stroke-width="2" opacity="0.45"/>
    <path d="M0 812 Q 300 768 600 812 L600 900 L0 900 Z" fill="#000" opacity="0.35"/>
    <g fill="#c9c2ff" opacity="0.3">
      <circle cx="120" cy="792" r="3"/><circle cx="300" cy="772" r="3"/><circle cx="470" cy="792" r="3"/>
    </g>

  <!-- 象徴のイラスト（大きめに） -->
  <g transform="translate(300 392) scale(1.42) translate(-300 -392)">
    
    <polygon points="300.0,242.0 310.4,353.4 375.0,262.1 328.3,363.7 429.9,317.0 338.6,381.6 450.0,392.0 338.6,402.4 429.9,467.0 328.3,420.3 375.0,521.9 310.4,430.6 300.0,542.0 289.6,430.6 225.0,521.9 271.7,420.3 170.1,467.0 261.4,402.4 150.0,392.0 261.4,381.6 170.1,317.0 271.7,363.7 225.0,262.1 289.6,353.4" fill="#c9c2ff" opacity="0.35"/>
    <polygon points="410.0,392.0 327.7,403.5 377.8,469.8 311.5,419.7 300.0,502.0 288.5,419.7 222.2,469.8 272.3,403.5 190.0,392.0 272.3,380.5 222.2,314.2 288.5,364.3 300.0,282.0 311.5,364.3 377.8,314.2 327.7,380.5" fill="#f4d35e" opacity="0.55"/>
    <circle cx="300" cy="392" r="46" fill="#fff"/>
    <circle cx="300" cy="392" r="64" fill="none" stroke="#fff" stroke-width="2" opacity="0.7"/>
    <circle cx="300" cy="392" r="46" fill="none" stroke="#f4d35e" stroke-width="3"/>
  </g>

  <rect width="600" height="900" fill="url(#vig)"/>
</svg>